/* XPM */
static char *biscuit_fond[] = {
/* columns rows colors chars-per-pixel */
"64 64 244 2 ",
"   c #C48A40",
".  c #C48A41",
"X  c #C48B41",
"o  c #C48B42",
"O  c #C58C41",
"+  c #C58C42",
"@  c #C68D42",
"#  c #C78D42",
"$  c #C68D43",
"%  c #C78E43",
"&  c #C98F42",
"*  c #C88E43",
"=  c #C88F43",
"-  c #C98F43",
";  c #C88F44",
":  c #C98F44",
">  c #C99043",
",  c #C99044",
"<  c #C99045",
"1  c #CA9145",
"2  c #C99146",
"3  c #CA9246",
"4  c #CB9246",
"5  c #CB9346",
"6  c #CA9247",
"7  c #CB9247",
"8  c #CB9347",
"9  c #CC9347",
"0  c #CC9348",
"q  c #CD9548",
"w  c #CE964A",
"e  c #CF974A",
"r  c #CF984C",
"t  c #D0994C",
"y  c #D09A4C",
"u  c #D29C4F",
"i  c #D39D4F",
"p  c #D39D50",
"a  c #D49E52",
"s  c #D49E53",
"d  c #D49F53",
"f  c #D39F56",
"g  c #D49F54",
"h  c #D49F55",
"j  c #D5A052",
"k  c #D6A153",
"l  c #D4A054",
"z  c #D5A155",
"x  c #D6A254",
"c  c #D7A254",
"v  c #D7A354",
"b  c #D6A255",
"n  c #D7A255",
"m  c #D7A355",
"M  c #D4A056",
"N  c #D7A356",
"B  c #D8A354",
"V  c #D8A355",
"C  c #D8A356",
"Z  c #D8A455",
"A  c #D8A456",
"S  c #D9A456",
"D  c #D9A556",
"F  c #D8A457",
"G  c #D9A457",
"H  c #D8A557",
"J  c #D9A557",
"K  c #DAA557",
"L  c #D6A35A",
"P  c #D8A558",
"I  c #D9A558",
"U  c #D8A559",
"Y  c #D9A559",
"T  c #D9A658",
"R  c #D9A659",
"E  c #DAA658",
"W  c #DAA659",
"Q  c #DAA759",
"!  c #DBA759",
"~  c #D9A65A",
"^  c #D9A75A",
"/  c #D9A65B",
"(  c #DAA65A",
")  c #DAA75A",
"_  c #DBA75A",
"`  c #DAA75B",
"'  c #DBA85A",
"]  c #DAA85B",
"[  c #DBA85B",
"{  c #DAA85C",
"}  c #DBA85C",
"|  c #DBA95C",
" . c #DAA85D",
".. c #DBA85D",
"X. c #DBA95D",
"o. c #DAA85E",
"O. c #DBA85E",
"+. c #DAA95E",
"@. c #DBA95E",
"#. c #DBA95F",
"$. c #DBAA5E",
"%. c #DBAA5F",
"&. c #DCA95D",
"*. c #DCAA5D",
"=. c #DCA95E",
"-. c #DCAA5E",
";. c #DCAA5F",
":. c #DCAB5F",
">. c #DDAB5F",
",. c #DBAA60",
"<. c #DCAA60",
"1. c #DCAB60",
"2. c #DDAB60",
"3. c #DCAB61",
"4. c #DDAB61",
"5. c #DCAB62",
"6. c #DDAC60",
"7. c #DCAC61",
"8. c #DDAC61",
"9. c #DEAD61",
"0. c #DCAC62",
"q. c #DDAC62",
"w. c #DDAD62",
"e. c #DCAC63",
"r. c #DDAC63",
"t. c #DDAD63",
"y. c #DEAD62",
"u. c #DEAD63",
"i. c #DDAE63",
"p. c #DEAE63",
"a. c #DDAD64",
"s. c #DDAD65",
"d. c #DEAD64",
"f. c #DEAD65",
"g. c #DDAE64",
"h. c #DEAE64",
"j. c #DFAE64",
"k. c #DEAE65",
"l. c #DEAF65",
"z. c #DFAF65",
"x. c #DDAE66",
"c. c #DDAE67",
"v. c #DEAE66",
"b. c #DEAF66",
"n. c #DFAF66",
"m. c #DEAF67",
"M. c #DFAF67",
"N. c #DEAF68",
"B. c #DFAF68",
"V. c #DFB066",
"C. c #DEB067",
"Z. c #DFB067",
"A. c #DFB068",
"S. c #DFB168",
"D. c #DFB069",
"F. c #DFB169",
"G. c #DFB06A",
"H. c #DFB16A",
"J. c #DFB16B",
"K. c #DFB26A",
"L. c #E0B067",
"P. c #E0B168",
"I. c #E0B169",
"U. c #E0B269",
"Y. c #E0B16A",
"T. c #E0B16B",
"R. c #E0B26A",
"E. c #E1B26A",
"W. c #E0B36A",
"Q. c #E1B36A",
"!. c #E0B26B",
"~. c #E1B26B",
"^. c #E0B36B",
"/. c #E1B36B",
"(. c #E0B26C",
"). c #E1B26C",
"_. c #E0B36C",
"`. c #E1B36C",
"'. c #E0B26D",
"]. c #E0B36D",
"[. c #E1B36D",
"{. c #E1B36E",
"}. c #E1B46C",
"|. c #E1B46D",
" X c #E1B56D",
".X c #E2B46D",
"XX c #E2B56D",
"oX c #E1B46E",
"OX c #E1B56E",
"+X c #E1B46F",
"@X c #E1B56F",
"#X c #E2B46E",
"$X c #E2B56E",
"%X c #E2B46F",
"&X c #E2B56F",
"*X c #E2B66F",
"=X c #E1B470",
"-X c #E2B570",
";X c #E2B571",
":X c #E2B670",
">X c #E2B671",
",X c #E3B671",
"<X c #E3B771",
"1X c #E2B672",
"2X c #E3B672",
"3X c #E2B772",
"4X c #E3B772",
"5X c #E2B673",
"6X c #E3B673",
"7X c #E2B773",
"8X c #E3B773",
"9X c #E4B773",
"0X c #E3B774",
"qX c #E3B775",
"wX c #E3B874",
"eX c #E3B875",
"rX c #E3B876",
"tX c #E4B874",
"yX c #E4B875",
"uX c #E4B876",
"iX c #E4B976",
"pX c #E4B877",
"aX c #E4B977",
"sX c #E5B977",
"dX c #E4BA77",
"fX c #E4B978",
"gX c #E4BA78",
"hX c #E5BA78",
"jX c #E4BA79",
"kX c #E5BA79",
"lX c #E5BB79",
"zX c #E4BA7A",
"xX c #E5BA7A",
"cX c #E5BB7A",
"vX c #E5BB7B",
"bX c #E5BC7B",
"nX c #E6BC7B",
"mX c #E5BB7C",
"MX c #E5BC7C",
"NX c #E5BC7D",
"BX c #E6BC7C",
"VX c #E6BC7D",
"CX c #E6BD7D",
"ZX c #E6BD7E",
/* pixels */
"V c ) E.E..X.X}.}.}.L.>.K ! .XdXdXdXdX9X&.Z ) E..X}.E.E.`.cX9X=X) ) 9.dXlXcX9X9Xj.c V j..X.X.XE..X.X.X.X[ c N Z N N N c c 1 # # ",
"Z V ) E.E.}.}..X}.}.}.p.K ! .XdXdXdX9X9X&.Z Z L.E.}.}.}.`.9X9X<X' V 1.cXlXcXdXcXj.V Z p.`..XE..XE..X,X.X[ N N Z N c N Z c 1 #   ",
"[ [ 1.E.}.}.}..X}.L.E.p.&.&.,XnXnX7X.X.X>.[ ! L.E.`..X.X.XcXcX<Xj.&.L.%X;X<XcX9XH.&.) j.`..XE.E.}.H.H.H.>.[ ) N Z Z [ [ ) w 1 1 ",
"E.E.`.E.E.}.}.}.p.Z Z L..X}.dXnXnXL.! [ L.}.}.}.E..XcXdXcXcXcXcXdXcX%X' K 9.cXcX,X`.E.`..X`..X.X}.p.Z Z V.}.V.[ Z Z V.}.H.N c c ",
".XE.E.}.}.E.}.}.L.) Z p..X.XdXcXnXp.Z Z H..X.X.XE..XcXcXcXcXmXcXcXcX=XU V 1.sXsXqX.XE.E..XE..X.X.X>.N c V.}.E.[ c N V..X}.) c N ",
".X.X}.E.}..X,X,XL.Z Z p..X.X9XdXdXV.[ >.H.K..X.X.X.XrXcXcX,X,XqX9X9X;X&.| f.9X9X,X.X,X`.E..XE.E.H.&.N N p..X}.p.,.p..X,X.XN c c ",
".X}..X}.}.,XnXnX.XZ Z p..X.X.X.X}.}.}.}.}.}..X.X`..X,X.XE.) V ) `.`.`.`.`.`.`.J.,XcXnXrXE..Xp.Z Z Z Z [ V..X.X7XcXcXfXVX,X) c c ",
"}.}.}.}.}..XcXnX.XZ Z p..X.X.X.X}.}.}.K..X}.K.J..X.X.X`.E.) V ) E.`.`.`.`.E.T.E..XrXcX,XE..X1.Z Z Z Z Z V.}.K.rXrXcXfXfX,XZ N c ",
"V.p.V.K.H.,XcXmX<Xj.j.E.E..XE.j.V.H..X}.,X,X,Xj.j.V.H..XH.p.&.p.`.`.`.%X=X=X,X,XqXcXdX,X,X,Xj.&.>.>.&.&.H..X}.7XcXdX`.J.N.U c c ",
"N N [ H..X,XcXVXnXcXcX<X`.`.&.V N V..XK.rXrXqX) N Z }..XK.K..X.X`.`..X`.,X9XmXmXmXcXcXcXmXmXqXE..X.X.X}.}.H.}.7XcX,X) c V V c c ",
"Z Z [ H.H.,XmXfXVXnXcX9X.X`.&.V P H.,XK.rXfXrX&.N N K.}.E.}..XK.`.`.`..X=X9XmXmXVXmXmXmXcXcXdX.X.X.X.X}.}.H..XrXdX,X) c V c c c ",
">.p.j.,X,X7XfXVXcXdXdX<X.X.XN.j.j..XrX,X7XrX,Xp.&.5.K..X.X.X,X7X<X<X`.L.j.`.mXmXqX=X=XqXdXdXE.j.V.K.K.}.V.p.j.,X,X,X,.o.&.V c c ",
".X}.7XnXnXfXVXmXfX.X.X.X`..XdXcXfXnXVXfX,X.XK..X}.}..X}..XfXVXVXcXmX<XU V 1.sXsXN.) Z p.`.`.&.) N V..X}.[ N N V..X.XE.}.`.) c d ",
".X.X7XgXfXnXVXVXfX.X.X.X`.,XrXmXVXvXfXvX.X}.K..X}.K.}.H..XfXVXVXVXmX<X) V d.sX9XE.Z V 1.`..X1.Z Z V..XH.[ N Z H..X.XE.}.`.) c c ",
"V.V.V.7XrX,X,XrX,X`.E.,XqXqXqXdXfXvXVXfXH.p.p.H.K..X7X.XrXfXnXnXcXdX`.V U | T.L.j.p.1.E.9XdXL.1.>.H..X}.p.&.>.H..X.XE.}.H.) c c ",
"N N [ K.H..XJ.H.E..X`.qXcXcX,XH.K.rXfXfX&.N ) V.K..XnXVXcXnXnXrX`..XE.V V ' V V &.`.E.qXmXmX,X.X.X.X.X}..XK.}.H..XH.E.}.H.) c c ",
"Z Z [ }.}..X.XH.}..X.X7XnXVX.X}.}.7XnXnX&.c Z V.K..XnXVXnXnXnXcX.X}.V.Z Z Z Z c >..XK.,XnXnX*X}.}..X.X.X.X}..XH.K.}.*X}.}.[ c c ",
"H.}.E.7X,X.X}..XV.>.p.K.dX7X7X*X7XrXrX7XV.p.p.,X7XrXrXrXrXH.H.H.}.}.E.p.p.>.p.p.H.7XrX,XV.V.S.K.K..XrX7X.X.X}.p.>.>.>.>.>.>.>.>.",
"nXnXrXrXcXrXK..Xp.c c p..X}.7XrXdX7X.X}..X.X.XrXnXfX.X}.H.[ N ) H.}.}.}.}.}..X}.,XnXnX}.Z Z >.}.}.7XhXnX,XK.H.) c N N Z K V.K.K.",
"nXnXnXnXnXrXK..XV.c c 5.}.K.7XnXnX.X}.}..X.X.XcXnXnX.X}.}.Z Z ) V.}..X}..XE.E.}.7XfXnX}.Z K V.}..X7XrXnX7XH..X[ c Z Z Z N K.}.K.",
"cXnXcX7X7X7X}.}.V.V.p.V.K.}.*XrX7X.X}..Xj.p.p..XrX7X.X}.K.H.H.H.E.}.}.}..XV.5.p.V.7X7X.XV.>.S.}.}..X,X7XV.>.,.p.V.V.>.V.V.K..X.X",
"nXnXdX}.}.}.}.}.}.}.}.}.}.K..X.X}.}.}.}.&.Z ) H..X.X}.}.,XvXfXrX.X}.}.}..Xj.N N >..X.X.X.X}.}.K.}.}.}.}.[ N N V.K.*XK.*X.XK.K..X",
"cXnXrX}.}.}.}.}.}.}.*XK.}.}.K.*X}.}..X.X&.Z [ V..XK..X.XK.vXMXfX.X`.E.}..Xj.Z N p.K..X.X}.}.}.}.}.}.}.}.&.N Z H.K.K.*X*XK.K.*X.X",
"p.5.p.&.&.V.7X7X7XK..XV.[ >.V..X.X7XrX7XH.V.V.K.K..XrXrXrXfXfX,X&.&.1.}..XE.V.p.V..X,XK.}.K.V.[ [ V.}..X.X.X,X.X*X*X*XJ.K.&.[ >.",
"Z Z Z Z N j.vXVXrXK..X5.N Z V..X.XrXnXnX7X*X*X.X}.*XnXnXnXvXvX,X) c ) H..X.X.XH.}.}.*X*X}.*X>.N c >.K.*XgXgXnX7X*XK.K.K.K.K c D ",
") Z Z [ N g.fXVXrX.X.Xp.N K V..X.XrXfXfX7XK.*X.XK.*XvXnXnXvXrX,X) c &..X.X.XH..X}.}.*X.X}.}.>.N K V.*XK.7XvXgX*X*XK.*XK.K.' D N ",
"H.K.}.V.V.,XfXvXrX.X.XK.H.V.K..XK.rXnXvXrXvXrX5.[ >..X7X*X*X*X.XH.V.H..X.XH.) ) V.K.*XV.[ [ 5.V.S.*XgX7X7X*X*X>.K [ K.*XXXS.S.V.",
".X.X.X.XK.7XMXvX7X.X.X7X.X.X.X.X.XrXvXnXVXVXVX&.N K K.K.*X*X.X*XE.E.E.E..Xj.c c >.}.}.>.N K p.}..X7XgXgX*XK.K.K c D S.K.XXK.XXK.",
".X}.}.}.}.7XVXvX7X.X*X.X.X7XK..XK.rXnXnXnXnXnX&.N [ V.K.*X}.K.K.}.H.K..X.XV.N Z >.}.XX>.K K V.}.K.7XvXgX*XK.K.' K K S.K.K.XXXXXX",
"[ [ 5..XK.}..X.X.X.XK.7XrXvXV.[ [ H.7X7X*X*X.XK.V.V.}..XK.&.T >.H..X.XfXnX7XH.H.S.}.XX}.S.S.S.K.*X*X*X*XXX}.}.S.V.S.K.XXXXK.XXK.",
"Z N &.K.}..X.X.XK.K..XrXVXVXp.N N V.K.}.}.}.K.}.K.*X.X.X}.[ c [ }.}.,XcXVXrX}.}.}.K.}.XX}.XX*X}.}.*XK.*X}.}.XX*XK.XXK.XXK.K.XXK.",
"[ [ >.K..X}.K..X.X,X.XrXZXVXV.N [ V.K..XK..X*X.X.XK.K.K.V.[ Z &.K.}.,XcXcXrX}.E.XXXXK.K.}.K.XXK.K.}.K.K.K.}.XXK.K.S.XXXXK.V.5.V.",
"rXrXfXfXfX.X[ [ V.fXhX7X7X*X}.V.K.K..X*X.X.X.X7XrXrX&.K [ V.K.K.}.}..XvXfXMXvXfXrX}.}.}..X}.p.Z ) ) ) ) V.K..X&.P [ H..XV.r 9 9 ",
"VXVXVXVXVX.XN N 5.rXnX7X}.}.}.}.}..X}.K..XK.K.vXvXrX[ c K S.*X.X}.}.,XVXMXMXMXMXrX}.}.H.}.}.&.c c N c c V.K.K.&.N N H..XV.w = = ",
"rXfXVXfXnX.X[ Z 5.7XvX7X}..X}.}.}.K.V.H.K..XK.rXfXrX>.N [ K.}..X}.}..XfXMXMXfXvX,XH.H.H.H.K.p.) [ [ [ ) V..XH.5.[ [ V.K.V.w 9 1 ",
".X.X.XJ..X.XK.K.H..X.X.X}..X}.}.}.>.[ N V.*X.X.XK..X}.K..XrXhXgX}.}..X.XK.K.,XK.j.[ N p.}.}.,X7XrX.XH.H.K..XK.rXrXrXK.,XK.c c c ",
".X.X.XK.K..X.XK.K..X.X.X.X}.}.}.}.[ c N V..XK..X.XK..X7X*XgXnXhX7XK..XK.K.K.K..Xp.N N &.}.}.rXnXcX.X.XK..X.XK.fXfXrX.X.X}.N N N ",
"H.H.H..XK..X7X,X,X.X}.H.S.K.K.}.}.V.[ >.H..X.XK.V.H..X*X*XgXhXrXH.V.H.K.7X,X.XK.j.[ [ p.K..X,X7X,X.XJ..XH.j.j.qXfXrX,X.X.X&.N ) ",
") ) &..X.X,XnXVXrX.X.Xp.K Z p..X.X7XgXrX.X*XK.[ N [ K.7X7X*X.XK.[ N &.rXvXrXK..X.X.X.X}..X.Xp.N N p..X.X&.N N =XfXfXfXvXrX.XK.H.",
"N N &.K..X.XnXVXrX.X.X5.N N 5.}.K.rXrXvX7XK..X[ c K K.*X*X.X}.S.[ c &.rXvXrXK..X.X.X.XH.}.E.>.N Z p.`.J.[ c N ,XfXfXvXnXnX.X}.}.",
"&.[ 5..X7X7XrXgX.XH.V.p.&.>.H..X.X7X7XhX*X*X7X>.&.&.K.,XK.H.V.V.>.>.>.rXgX7X}..X}.V.V.K..X.XV.&.&.H..X.X5.&.&..XfXfXvXfXfXH.p.V.",
".XK.K.fXfXrXK..XV.N N 5..XK..X.X}.}.}.}.rXnXnX.X.X.X.X.XK.[ N [ V.K..XK..X}.}..XV.N N V.rXnX7XK.K..XK..XK.K.K..X.XK.K.K.H.) N N ",
".X.X,XvXvX7X.X.XV.N N 5..X.X.X.XK.}.K.K.rXVXvX.XK..X.X.XK.Z N [ K..XK.}.K.}.K.}.j.N N j.nXnX7X.X.X.XK.K.K.K.K.K.K..X.XK.H.P c N ",
".XK..XfXrX7X.X.XH.>.>.H.7X7XK.K.*X.X}.}.K..XK.K..XK.,X7X7Xp.>.p.}.K.}.}.}.V.V.V.p.,.&.V.rXrX*XK..XK.V.V.K.7X7XK..XK.V.g.5.&.&.&.",
"7X.XK..XK..X.XK..X,XK.,XhXnX7X}.*X*X.X.X&.N P H.K..XvXnXnX.X.XK.K.}.}.}.}.p.N Z 5.K.,XK..XK.K..XK.>.N N K.VXvX,XK.K.D N P H.K.K.",
".XK.*X.X.XK..X.X.X.X,X,XnXnX7X}.K..XK.K.&.c N H.}..XfXVXfX.X.X.XS.}.}.K.}.>.N N 5.,X.X.XK..X.XK..X>.Z N K.vXfX.X.XK.T c P H..XK.",
"V.5.V.K..XH.j.j.K.rX,XrXgXrXK.V.V.V..X.X5.&.>.H.}.}.7XrXrX.X.XK.}.}.}.*X*XK.>.>.p..X.X.X.XK.V.5.p.5.p.>.K.7X7X.XK.K.5.>.5.K..XK.",
"K N [ .X7XV.N N j.vXnXvXnXnX5.N N V..X.XK..X.XK.}..X}.K.}.K..XK.}.S.*XhXnX7X}.}.K.K..XK..X.X>.N N V..XK..XK.K..XK.K.K.K..X*X*XK.",
"K N [ .X.XV.N N p.cXcXfXVXnXp.c N j..X.X.X.X.X.XK.K.K..X.X.XK..XK.K..XgXVXrXK..X.XK.K.K.}..X5.N N p.K.K.H.H.K.K.K..XK..XK.K.K.K.",
"p.>.p.K..XV.>.p.V.,XrXrXrXrXV.5.>.V.K.K.K..XK.j.j.g.K..XK.rXrX.Xp.>.5.7XrX7X.X.XK.>.5.V.7X7XK.5.p.V.K.K.g.5.g.K.rXrX,XK.H.P L L ",
".X,X.XK.K..X.X}..X.X.XK.E.E..X.XK.}..X.X.XK..X&.N N H.K.K.nXfX,X[ c [ K.}.K.7XK.V.c c V.hXnX7XK..X}..XK.&.c P =XfXfX.XK.j.q o $ ",
"7X.X.X.X}.K.}.K.K..X.X.X.XH..XH.K..XK..X.X.XK.&.N [ H..X.XfXVX7XK N [ }.K..X.X.XV.N N V.gXvXrXJ.H.K.}.K.&.c N K.fXfXK.,Xc.q $ $ ",
".X.XK.5.>.V.*X}.J..X.Xj.,.&..XrXrX.XK.K.p.>.>.V.V.V.H.}..X,X7X.XV.p.V.K..XK..XK.V.V.>.K.fXvXJ.&.&.V.}.}.K.H.J.,X7XrX.X,XJ.g r r ",
".X.XH.N c >..XK..X.X`.1.N c .XnXfX.XK..X[ N [ K.*XK.}.K..XK.K.}.K..X.X.X.XK.K..XK.}.K.7XfXfXj.c c p.K..XrXVXvX.XK..XK.K.J.P N N ",
"K..XH.N N [ K..XE.J.H.1.Z N H.VXvX7X.XK.&.N N H..X.X}.H.H.K..X.XK.K.K.K.K.K..X*XK.K..X7XvXfXj.N c 5..XK.rXnXvX,XK..X.X.XK.N c c ",
"5.>.&.p.V.V..X.X.XrXrX.Xj.j.H.,X7XV.5.&.5.V.V.7XrXrXp.&.5.}..XK.>.[ >.>.&.V.rXrXK.&.&.V.7XK.H.p.5.H.K..X.X7X,XK..XK.5.&.,.N c c ",
"N N [ }.}.}.}.}.,XVXvX,XK.,X.XK..X5.N N V..X.XrXnXrX[ N [ K..XK.N N N Z Z 5.gXnXK.N N >.K.}..X.XK..XK.K.K.K.K.K.K.K.T N N c c c ",
"N N [ K.}.}.}.K.,XnXMX=XK.K.K..XK.>.N Z V..X.XvXnXrX[ N [ K..X}.[ K N [ K 5.vXvXK.N N >.}.}.K.K..X.XK.K.*X*X.XK..XK.P N c c c l ",
"V.p.V.K..XV.>.&.j.rX,XH.[ [ H..X.XH.V.H.K..X.X7X7X7XV.V.V.K..XK.V.V.5.N N &..X7X.XV.V.V.}..X.X.X.X&.j j [ &.&.H..XK.H.V.o.r q w ",
"}.}..X.X.XV.Z c &.J.K.j.N N V.K.K..XK.K..XK..XK..X}.}.K..X.X.XK.K..XV.N N &..X.X7XK.K.7X.X.XK..XK.l = = p N N H.,X.X.XK.g.q # o ",
"K.}.H..XK.V.N c 5.K..Xp.N N 5.H.K.K.K..XH.H.K.}.}.}.}.V.K.K.K.K..X*XK.N N &.K.K.K.K..XK..X.XK.H.K.l ; ; u N N H.,XK.=XK.c.7 + o ",
"j p c &.&.[ N N 5..XK.H.V.V.>.[ &.V..XK.5.[ &.V.}.H.H.}.V.>.>.5.K.*XK.V.5.V.K.:XV.[ &.5.K..XV.[ ,.N p p j N N V.=XK.,.&.P 6 $ $ ",
"1 ; q c N N N N >.K.K..X.X.X>.N N V..XK.[ N N V.}.K.}.}.V.K N [ }..X*X*X*XK.=XK.p.N N 5.,XK.5.c N N N P N N N H.K.K.P c c ; o o ",
"= ; q c N c N N &.K.,X.XK.K.>.N N V..XK.[ c N p.}.}.}.H.V.[ N [ K.K.K.7XK.7XK.7Xp.N c 5.K.,X>.N c N N N N N N H.K.,XP c j ; o o "
};
