/* XPM */
static char *cinamonroll[] = {
/* columns rows colors chars-per-pixel */
"64 64 117 2 ",
"   c #8C3B17",
".  c #8E3E1A",
"X  c #903E17",
"o  c #903F19",
"O  c #9F450D",
"+  c #8F401B",
"@  c #984317",
"#  c #92411B",
"$  c #9A451A",
"%  c #9D491B",
"&  c #A1470E",
"*  c #A4490F",
"=  c #A04710",
"-  c #A54B10",
";  c #A94E11",
":  c #A34C1B",
">  c #A94E1A",
",  c #AD5113",
"<  c #A7501C",
"1  c #AC531C",
"2  c #B25615",
"3  c #B95616",
"4  c #B55917",
"5  c #B85C17",
"6  c #B2561C",
"7  c #B55A1B",
"8  c #BA5D1B",
"9  c #BE611C",
"0  c #974720",
"q  c #994720",
"w  c #994821",
"e  c #A14E22",
"r  c #AF5724",
"t  c #AF5825",
"y  c #AD5829",
"u  c #B35A24",
"i  c #B95E21",
"p  c #B35D2A",
"a  c #BF6220",
"s  c #C25E1A",
"d  c #CD6317",
"f  c #C4661E",
"g  c #CB641B",
"h  c #C6681F",
"j  c #C96A1F",
"k  c #D46517",
"l  c #D66817",
"z  c #D86917",
"x  c #D46619",
"c  c #D6691A",
"v  c #D96C1A",
"b  c #DC711D",
"n  c #C46620",
"m  c #C86521",
"M  c #C76920",
"N  c #C96B21",
"B  c #D36F21",
"V  c #D86E20",
"C  c #CF7122",
"Z  c #CE702E",
"A  c #D37423",
"S  c #DC7323",
"D  c #D67925",
"F  c #DA7B26",
"G  c #DD772A",
"H  c #DC7C2A",
"J  c #CD7337",
"K  c #C57038",
"L  c #C9743B",
"P  c #DE7B31",
"I  c #D17B3E",
"U  c #DA7F3D",
"Y  c #E17625",
"T  c #E17C2E",
"R  c #E17E31",
"E  c #DE822A",
"W  c #DE813C",
"Q  c #E1862C",
"!  c #E38A2E",
"~  c #E48032",
"^  c #E48D31",
"/  c #E88F30",
"(  c #E7863C",
")  c #E5883E",
"_  c #E98A3F",
"`  c #E79133",
"'  c #EA9534",
"]  c #ED9936",
"[  c #EB9738",
"{  c #EE9C39",
"}  c #F09A36",
"|  c #F19E39",
" . c #EFA03C",
".. c #F3A43D",
"X. c #F6A93F",
"o. c #D78143",
"O. c #DA8242",
"+. c #DC8A4C",
"@. c #E58A42",
"#. c #E98C43",
"$. c #E88E48",
"%. c #EB9046",
"&. c #EC924A",
"*. c #E29051",
"=. c #EA9756",
"-. c #EE9955",
";. c #EB9B5A",
":. c #F4A740",
">. c #F7AC43",
",. c #F8AE44",
"<. c #F7B045",
"1. c #F8B046",
"2. c #F7B148",
"3. c #F8B048",
"4. c #F0A05D",
"5. c #EFA363",
"6. c #F3A564",
/* pixels */
"& * & & * * & * ; & * * * O = ; * * * * , , ; ; * , f j N N j C j C N j j f , ; * - ; - - - * - * * * & * * * O - ; - * O - - - ",
"& & * * * * O = * & O O * O * * * * * 2 f f f f h f N j C j C E ! ` A j N N h 9 f f f f f f f f 4 - * * * * * * - * - * - * * - ",
"& & - * = * * O * O * * * * * = & * - , h N j j N N j h j j A ..<.>.E j N N N N M j j N M N N M m ; & & = * * O * = - O * * - * ",
"2 2 ; * ; = O O * * * ; , 5 5 9 5 7 5 f h h N N j h N h j j C ..<.<.D j j N N N M M j N M M j j M , & & - * * * O - * * O O * * ",
"f f 9 ; * * * * * ; = , 9 M M M M M N N c A N M N N j h M f C  .X. .F j N N C f N j N M N F D A N 4 * * ; ; * * * - * * = * * O ",
"M M f ; & * * * ; ; * , M N f f h M j E ....H f N N M N C f N C C A N j j N N N j m N M F ....] A M f f f 4 * * * O * - - ; * * ",
"M N f - O ; * * * * * 4 h h M h h j f ^ <.,.Q j N N N N f h N h h j N N M j N j M N f j A ..,.{ N N N N N 9 * * * O O * * O 2 9 ",
"M M f ; * = * * * * O 4 M N N M h h h ! >.,.E j h N N j N N N j j N N M N j N N N N M j D ..2.] N M M N N 9 ; * - O O * ; O 4 C ",
"h h f ; * * * ; ; ; , 5 N h N j N j N F ^ ^ A m M 7 1 e 1 e : e < < < < : : : 7 f N M M A E ^ H N N j h j 9 , * - - * * * * 4 f ",
"9 7 , = = * , 8 8 9 f h M N N j N N N g M M j f 7 # # . # X # o + + # + . # # $ 1 M M N M f f j N N N N j h f 9 9 7 , , * * , f ",
"* * * * * * 2 M N M N C j C N N N N M M N M j j 6 $ # # # # o o # # . # . # . # : n M j f M M M h j N C N N N N N f 8 * * * , f ",
"= O - * ; * 4 M N M N E ' ' Q C M N M M M M m f 1 # . # # # 0 o . . . + # # # # % 8 a f n n j M N j M h j N h N N M 9 * * * ; 4 ",
"* O * * = ; 4 M N N j ! <.<.] j M N N n 1 : % : $ # # + o o . . . + + + + + # # $ $ $ $ $ $ 7 m h h N N N N N N N j 9 O * * O - ",
"* * * * * * 2 N j j j ! X.<.] j N N M 6 # # # . + + + + #   . .   . . . + + + #     o o .   : n h f f f N j M N j h 8 * * * O - ",
"* * * , ; , 8 N N j N H { | ! j N N M 1 # # # # X . # . o q $ q $ w w $ w w w % 0 # # .   . e i N N j j N N E E E C 9 * - * - O ",
"* * 7 f f h f j M N j j j g A N N M M 1 # . # # . . . % K o.U ) o.o.O.o.o.o.o.O.J % o 0 + + : a N f h j h N ] 2.X.A 9 ; - ; - ; ",
"O * 9 j j N N f j M j M M M N N m u 1 $ X # # + $ p L I $.$._ _ #.#.%.&.&._ #.&.@.e o o . + $ 1 6 7 9 9 f j ' 3.:.D f 9 f 9 , & ",
"* * 7 j j N N j N N N N N N N n : # # . . . . . e *.6.5.&.#.( _ ( %.%.[ &._ #.#.U : o o X X . X + # $ < f M ' 3...A N M N h , & ",
"* * 7 h N N j f j N M M M N j n $ . # # . . . . e ;.6.4.@.R R R T T ~ ~ T T T T Y s f n i $ . .   . + $ a f D F F B M N M f * & ",
"O * 9 N N N N N j M N M j j N s @ X . # X # $ # y =.6.6.T v b v b v v v b b b b b v b S V : X . + + + $ 9 M M j M M M M M M * * ",
"* * 7 M M N C C A N N j N N M 9 $ # . # $ K o.o.R @.#.&.Y v v v v z b z v v v v b b b b c 1 . . + + . $ i M M M N M j h N f ; * ",
"* * 9 N M N ! ..:.E M j N N a 7 $ # o . w +.;.;._ v v v b b v z b b z b v z b v v b v b v f : : $ + . $ 6 n f M N M m f h 9 ; * ",
"* * 9 N M c { 2.<.E M N N 6 O $ o o X . % +.;.4.#.Y v v v z s 8 3 s s s 3 8 s k b v v v b b c g 7 @   o $ % : 7 h N h M h 9 * * ",
"* * 9 N h j { 2.,.Q h N M % + + # X % : u @.-.-.@.Y v v V 3 $ + .       X o > k v z b v b b v v j : . X . # . 1 N N j h f f * & ",
"* * 7 h N N E ^ ` D j j f < + + o e Z G G G S Y S b v v c : # # . X . . . . o 6 c v c b v v z c c 1   . # #   : M M M N N f , , ",
"* * 5 h h j j N j j j j f < + + . y R R Y S c v c v b S m $ .   . .   o . . o o s f x v v c v z c 1   . + . + : n M M M M h f f ",
"* * 7 j N N N N N N N j f % + + . r P P T S v z z c g > % # + . . . o . . o o o + @ 1 x v v v v V r + 0 # + # : M h M M M N M M ",
"* * 4 N M N N N N j j j 9 < + + o y R R T S c v k l :   . . . .   o o     # o o + + % x v v c c c 6 + + # # + : M M N N N N M f ",
"* ; 9 f h h h N N N N j h : + + . p G P P V c z z c > . . .       + . . . .   . # . % c v z c c c 6 . + + + + : M M M M N M N M ",
"; * 8 N N j N N j N h h M : + + o r P P R G z c c x :     .   . . . . .   . . . + + % j v v v v b 6 . . # . + : M M M M M M N N ",
"* * 9 N j f N N N N N M h : + + . y R R R S v v v c : . . . . . . + . . . + + . + + % c b z v c c 6 . . # # + % m M h M h M N m ",
"* * 4 h h N N j N N N N 9 < + + o u P R R S c c v v > . + . . # + . + . . . . +     % g l l c v v 6 . + . + # : M h M M M M M M ",
"; * 4 N M N h N M M h N j : . #   r P R Y S v v v v r   . o o o + + .   . + . . . . $ d z v V v b 6 . o + . . : m m N M M M M M ",
"* * 7 N M N N N M M j M N < # #   r P G G S v v v z 6 o o . . . . . + + + .   . 0 o : x v v z z z u o o # o 0 % M M M M m M 9 8 ",
"* * 4 M M N j N M M h h h 1 . + X r B G S S c v c z d s r X o o . + . .   . . 0 i m g z z x x v x u   o . o X : n M M M N f ; * ",
"* O 4 N j h j j j N h h h : + +   % B G S v v x c x k v s $ o o . + . + . .   : V V z z v x x v v r . # o # . : n M M M N f , * ",
"O O 4 M j N F ' ' Q j j M < + + X o e i s x x z v v x x x w   o . . . # # # o 6 V V v v k k x x g > . . . # o : f h h j N h , * ",
"* * 2 M M N ^ ,.,.} j j N < + + o # X X @ s x x c v c c x > o o . . o o # o e g x z V k k s 3 > : o   o . # o : M M h M N f ; * ",
"* * 2 f M M / ,.,.] j j N < # # $ $ o o $ a z k k x z c c x s s s s s s g g x x V k k k k : . . o o o # 0 o > i M M j h h f ; * ",
"O * , f m j ! :.>.' g j C a 7 7 e o o o $ s z x k z z k k x z x x V z x V v v x z z k k x : . X o o o # : i s m M N N f j f ; * ",
"& O , N N M C A A C N N j M 9 f 7 o . + o i x x x x z k k x z c x z x k v z x c c x x v m e . . + X + # 1 f n m M N M M M n ; * ",
"O O , M M M M N M N N M f M M M u o . . o > s x d d x x k z c x x x z z c c c c x k s 3 6 o . . # . . # < f h f M M M h M f , & ",
"O O , f f j N M M N N N N j N h 8 $ o . o o q : $ @ 4 x x k k z x k x v x k x x x s o o o . . # + + + # 1 n M M h f 4 4 4 2 - * ",
"* * * , 2 1 9 N h N N N f f N f 7 X . o o   . . . . > x k k k x z v x z x k k k x 3 X o # . . . + . . # 1 M N M h 4 * & * * = - ",
"; * & & * * 4 N N N M c A j M M i $ $ @ o o o o +   < g x x c j z x k k x k x x V r . . # . . . # $ $ $ 8 N M M M 7 * * & * - & ",
"* * * & * * 4 9 M j N ` | ] F M M n i 1 o o 0 o   + $ : 1 1 1 < > r > r e > > > : X o o # + . # 1 8 9 n M N N N M 4 & * * * * ; ",
"* * * ; ; O 2 f N j j ] X.>.F M j f M n $ . . . + + +       + +   . .   . .   .     o + . # . # 6 f M M N N N M M 2 & * * * * * ",
"O * * * * O 2 N M j A | ,.X.E M M M M i $ o . o   + +   + + + +   . o . . . . o . . . . + + . # 7 M N M N M M M f ; * * - * * - ",
"* * * * - & 9 C M h C '  . .E 9 N M N N % + + + + + + + # + # + + + + + + + + + + + + + # # + # a M M M M 9 4 4 , - O - * - 4 9 ",
"* * * * & * ; 9 M h h A C C N N N M M M 1 $ + + + @ # + # # # # + + + + + + + + + + + @ : : < 7 n M M M M 4 O * - O O - - ; 9 N ",
"* * * * * - * , 2 2 9 h M C N N 9 N C N a 9 9 a 9 a : + # # + + + + + + + + + + + + + 1 9 M 9 C h N M h M , O * - - O O - ; N M ",
"* * * ; * * * * & * 2 h M N C N C M M N C M N N a 9 7 @ # + + + + + + + + + + + + + + 7 h M h M N N h m h , O * - - * ; O ; 9 M ",
"* ; O * * * - * ; * 2 9 C N N M h N N M h h h h N a a + + + + + + + +   + + + + + + @ 7 M 9 N C f M 9 9 8 , * * - - O * O ; 9 N ",
"5 9 9 4 ; * & & * & 2 h a M M C h h h C h h h h h h 9 7 1 1 1 1 2 1 1 1 1 6 r 1 , 4 9 j h N M 9 , ; ; ; ; * * * - O 4 4 5 9 9 h ",
"h h h 9 ; O - ; ; & ; 9 9 9 9 9 N N N N E ! E 9 N h M N N h h h j h j N N N N N f f f f C M 9 9 ; * O O * * * * O ; 9 M N N h h ",
"h N N M ; * - - * ; ; , , ; * 9 h N h C X.X.^ j h h M N N j j h h h h N N N f N N N h 9 9 C N 9 , O * * * * * * - ; 9 N N N M h ",
"E a C 9 * * * * ; * * & * * * ; j j h C ..<.^ h M h h h N N M N N j j j C j N N C h h 9 9 4 9 ; ; & ; & * 2 9 9 9 9 M M M M M h ",
"5 a C 9 ; * * * * O * * * * ; ; 9 N h A  .X.` j N N h h h N M h h j A D E A N N h h N 9 * & & * * ; & & * 9 M M C C M M N N N 9 ",
"9 E a C 9 5 5 9 ; & * * * * & ; 9 N N N C b E j N h N N h N N M j h E >.>.` N h N h h 9 * & & & & * ; * ; 9 M M h N N N N C E A ",
"9 9 9 9 E 9 C a 4 * * * * & * ; 2 4 9 4 4 h 9 j N N N N M M M N j h ` <.<.` N N h h h 9 * & & & & & & & ; h M N M N M M N ` X...",
"a 9 C 9 N N a C 4 * * * * * & * ; * * * , C M C N N N M M M M N N N E <.<.` h j h N N 9 , ; ; ; ; ; ; ; 4 h N M h N h N N ] X.X.",
"E 9 C 9 N C C a 9 2 2 2 2 ; * * & ; & ; , 9 M a M h h h N N N M N N D E E A h h h h h 9 9 9 9 9 9 9 9 9 9 M h M h h h j N ] X.X.",
"a 9 9 C C 9 N N 9 N 9 j 9 5 ; * ; & & ; , 9 N N M N M M M M M M N N j M j h h f h h N j N N N h h 9 N N 9 h h h h N h h h E ` ^ ",
"E C 9 C a C a N C 9 N 9 j 9 * * & ; ; ; ; h N N 9 h N M C N M N N N N N h f h j N h N h h N h 9 h C N N h h N h M N h h f j h j "
};
