/* XPM */
static char *coffe[] = {
/* columns rows colors chars-per-pixel */
"64 64 197 2 ",
"   c #3A393D",
".  c #38363C",
"X  c #3F3D41",
"o  c #403F43",
"O  c #444246",
"+  c #45454A",
"@  c #48474A",
"#  c #4A494C",
"$  c #484649",
"%  c #504C4E",
"&  c #5B4F49",
"*  c #4F4D50",
"=  c #534F50",
"-  c #565253",
";  c #5B5656",
":  c #5C595B",
">  c #5E514A",
",  c #665346",
"<  c #635D5C",
"1  c #69615F",
"2  c #605F61",
"3  c #666161",
"4  c #6A6463",
"5  c #6C6868",
"6  c #736C6A",
"7  c #756C69",
"8  c #7C726E",
"9  c #716F70",
"0  c #757273",
"q  c #7C7573",
"w  c #7E7A79",
"e  c #96491B",
"r  c #9B4D1E",
"t  c #9E501F",
"y  c #A3511E",
"u  c #9D4F20",
"i  c #9E5120",
"p  c #8E552E",
"a  c #A35522",
"s  c #A65824",
"d  c #AB5C26",
"f  c #AD5F28",
"g  c #B05E26",
"h  c #AE6028",
"j  c #B4652A",
"k  c #B6692D",
"l  c #BB6B2D",
"z  c #B36328",
"x  c #AD6838",
"c  c #BC6E30",
"v  c #B26A3B",
"b  c #BE7132",
"n  c #C06F2F",
"m  c #C1702F",
"M  c #C47432",
"N  c #C97733",
"B  c #CB7A35",
"V  c #C57B3A",
"C  c #CC7D39",
"Z  c #C57738",
"A  c #D07E36",
"S  c #8E6644",
"D  c #B37147",
"F  c #B47248",
"G  c #847A75",
"H  c #827D7B",
"J  c #837874",
"K  c #CE813C",
"L  c #C6803F",
"P  c #D2843C",
"I  c #D5893F",
"U  c #89817C",
"Y  c #92857F",
"T  c #CD8442",
"R  c #CF8842",
"E  c #D58A43",
"W  c #D98E43",
"Q  c #D48D4B",
"!  c #D38847",
"~  c #DC9145",
"^  c #D6914C",
"/  c #DC954A",
"(  c #DE984E",
")  c #DA9653",
"_  c #DC9955",
"`  c #D99654",
"'  c #D48E50",
"]  c #E19A4D",
"[  c #E29E52",
"{  c #E5A254",
"}  c #E8A555",
"|  c #E3A55C",
" . c #EAAB5B",
".. c #E8A85C",
"X. c #DC9F62",
"o. c #DDA369",
"O. c #DFA976",
"+. c #E7AD63",
"@. c #E5AB67",
"#. c #EDB263",
"$. c #EEB56A",
"%. c #EBB56D",
"&. c #F0B96D",
"*. c #F0B769",
"=. c #E4AF72",
"-. c #EDB971",
";. c #E6B47C",
":. c #EEBD7A",
">. c #E8B374",
",. c #F1BD74",
"<. c #F3C47B",
"1. c #F6C97F",
"2. c #8B8682",
"3. c #8B8887",
"4. c #938780",
"5. c #948B85",
"6. c #9C8D85",
"7. c #968F8A",
"8. c #988D86",
"9. c #9D918A",
"0. c #969493",
"q. c #999795",
"w. c #9B9896",
"e. c #A3938A",
"r. c #A9978D",
"t. c #A9988F",
"y. c #A4958B",
"u. c #AD9D92",
"i. c #A19F9D",
"p. c #AFA096",
"a. c #A3A09E",
"s. c #B2A196",
"d. c #B3A499",
"f. c #B7A89D",
"g. c #BBAA9E",
"h. c #B8A79C",
"j. c #BBA38F",
"k. c #A6A4A2",
"l. c #A9A6A4",
"z. c #ABA8A5",
"x. c #BDAEA2",
"c. c #B5ACA5",
"v. c #BFB1A4",
"b. c #BBB2A8",
"n. c #D0B090",
"m. c #C5A486",
"M. c #E8BA86",
"N. c #E5BB90",
"B. c #C1B3A6",
"V. c #C3B6A9",
"C. c #C6B9AC",
"Z. c #CABBAD",
"A. c #CABEB1",
"S. c #C5BDB4",
"D. c #EDC48D",
"F. c #EEC185",
"G. c #F1C78C",
"H. c #F4CC8C",
"J. c #F0C485",
"K. c #ECC698",
"L. c #F4CD92",
"P. c #F1CE9D",
"I. c #F7D295",
"U. c #F6D49C",
"Y. c #F9D79C",
"T. c #CEC1B4",
"R. c #D0C3B5",
"E. c #D6CABC",
"W. c #D9CCBD",
"Q. c #D2C6BA",
"!. c #F4D3A3",
"~. c #F9DBA4",
"^. c #F7DBA9",
"/. c #F8DEB2",
"(. c #F5DCB9",
"). c #EFCCA1",
"_. c #FBE0AD",
"`. c #FAE3B6",
"'. c #FBE5BB",
"]. c #FCE8BD",
"[. c #D8CEC1",
"{. c #DCD2C4",
"}. c #DED5C8",
"|. c #E0D7C9",
" X c #E4DBCD",
".X c #E6D8C7",
"XX c #E7DED0",
"oX c #E8DED1",
"OX c #FAE5C1",
"+X c #FDEBC4",
"@X c #FCECCB",
"#X c #F7E2C3",
"$X c #FCEED2",
"%X c #FDF1D4",
"&X c #FEF4DC",
"*X c #FEF6E0",
"=X c None",
/* pixels */
"=X=X=X=X=X=X=X=X=X=X=X=X=X=X=X=X=X=X=X=X=X=X=X=X=X=X=X=X=X=X=X=X=X=X=X=X=X=X=X=X=X=X=X=X=X=X=X=X=X=X=X=X=X=X=X=X=X=X=X=X=X=X=X=X",
"=X=X=X=X=X=X=X=X=X=X=X=X=X=X=X=X=X=X=X=X=X=X=X=X=X=X=X=X=X=X=X=X=X=X=X=X=X=X=X=X=X=X=X=X=X=X=X=X=X=X=X=X=X=X=X=X=X=X=X=X=X=X=X=X",
"=X=X=X=X=X=X=X=X=X=X=X=X=X=X=X=X=X=X=X=X=X=X=X=X=X=X=X=X=X=X=X=X=X=X=X=X=X=X=X=X=X=X=X=X=X=X=X=X=X=X=X=X=X=X=X=X=X=X=X=X=X=X=X=X",
"=X=X=X=X=X=X=X=X=X=X=X=X=X=X=X=X=X=X=X=X=X=X=X=X=X=X=X=X=X=X=X=X=X=X=X=X=X=X=X=X=X=X=X=X=X=X=X=X=X=X=X=X=X=X=X=X=X=X=X=X=X=X=X=X",
"=X=X=X=X=X=X=X=X=X=X=X=X=X=X=X=X=X=X=X=X=X=X=X=X=X=X=X=X=X=X=X=X=X=X=X=X=X=X=X=X=X=X=X=X=X=X=X=X=X=X=X=X=X=X=X=X=X=X=X=X=X=X=X=X",
"=X=X=X=X=X=X=X=X=X=X=X=X=X=X=X=X=X=X=X=X=X=X=X=X=X=X=X=X=X=X=X=X=X=X=X=X=X=X=X=X=X=X=X=X=X=X=X=X=X=X=X=X=X=X=X=X=X=X=X=X=X=X=X=X",
"=X=X=X=X=X=X=X=X=X=X=X=X=X=X=X=X=X=X=X=X=X=X=X=X=X=X=X=X=X=X=X=X=X=X=X=X=X=X=X=X=X=X=X=X=X=X=X=X=X=X=X=X=X=X=X=X=X=X=X=X=X=X=X=X",
"=X=X=X=X=X=X=X=X=X=X=X=X=X=X=X=X=X=X=X=X=X=X=X=X=X=X=X=X=X=X=X=X=X=X=X=X=X=X=X=X=X=X=X=X=X=X=X=X=X=X=X=X=X=X=X=X=X=X=X=X=X=X=X=X",
"=X=X=X=X=X=X=X=X=X=X=X=X=X=X=X=X=X=X=X=X=X=X=X=X=X=X=X=X=X=X=X=X=X=X=X=X=X=X=X=X=X=X=X=X=X=X=X=X=X=X=X=X=X=X=X=X=X=X=X=X=X=X=X=X",
"=X=X=X=X=X=X=X=X=X=X=X=X=X=X=X=X=X=X=X=X=X=X=X=X=X=X=X=X=X=X=X=X=X=X=X=X=X=X=X=X=X=X=X=X=X=X=X=X=X=X=X=X=X=X=X=X=X=X=X=X=X=X=X=X",
"=X=X=X=X=X=X=X=X=X=X=X=X=X=X=X=X=X=X=X=X=X=X=X=X=X=X=X=X=X=X=X=X=X=X=X=X=X=X=X=X=X=X=X=X=X=X=X=X=X=X=X=X=X=X=X=X=X=X=X=X=X=X=X=X",
"=X=X=X=X=X=X=X=X=X=X=X=X=X=X=X=X=X=X=X=X=X# # # # # # # # # # # # # # + =X=X=X=X=X=X=X=X=X=X=X=X=X=X=X=X=X=X=X=X=X=X=X=X=X=X=X=X",
"=X=X=X=X=X=X=X=X=X=X=X=X=X=X=X=X=X# # # # =X=X=X=X=X=X=X=X=X=X=X=X=X=X=X# # # + =X=X=X=X=X=X=X=X=X=X=X=X=X=X=X=X=X=X=X=X=X=X=X=X",
"=X=X=X=X=X=X=X=X=X=X=X=X=X=X# # # =X=X=X=Xm i r r r u u r r r r r r l x =X=X=X=X# # =X=X=X=X=X=X=X=X=X=X=X=X=X=X=X=X=X=X=X=X=X=X",
"=X=X=X=X=X=X=X=X=X=X=X=X# + + + S C r e s g y r s j j j l l k d t r f d e e e p S , + + + =X=X=X=X=X=X=X=X=X=X=X=X=X=X=X=X=X=X=X",
"=X=X=X=X=X=X=X=X=X=X=X+ > , =X=XM M y t s f f d j N N N B B A M f f f f d t r s m =X=X# # =X=X=X=X=X=X=X=X=X=X=X=X=X=X=X=X=X=X=X",
"=X=X=X=X=X=X=X=X=X=X# =Xb k r i a i s s l P P P P P B B B B E E ~ ( E P K s y a a s s =X=X+ + =X=X=X=X=X=X=X=X=X=X=X=X=X=X=X=X=X",
"=X=X=X=X=X=X=X=X=X# =XK k i i k l h N m B I K ..$.[ C N B P -.H.H.H._ K P N M l a a a r =X=X=X# =X=X=X=X=X=X=X=X=X=X=X=X=X=X=X=X",
"=X=X=X=X=X=X=X# + =X=Xf a u a M B N B N I ..D.>.+.#.+.W I ..~.+X@X+XU.>.] K B M m c j a z =X=X=X+ =X=X=X=X=X=X=X=X=X=X=X=X=X=X=X",
"=X=X=X=X=X=X=X# # =X=Xu a j c P I P N N W ,.@XG.,.L.1.| ] #.L./.@X&X+XH. ./ _ ^ P I C k l j =X=X+ # =X=X=X=X=X=X=X=X=X=X=X=X=X=X",
"=X=X=X=X=X=X=X# & =Xa a l P ] { ] P T B / ,.@X].'.$XY.$.} #.-.L.].&X+XG.[ #.I.D.W ~ / W N f a =XO O =X=X=X=X=X=X=X=X=X=X=X=X=X=X",
"=X=X=X=X=X=X# =Xb l a l n C  .#.[ ) G.^ W -.@X&X&X*X%X;.] &.(.%X&X&X+XF.( #._.'.<.T C ( C d s M =X=X# =X=X=X=X=X=X=X=X=X=X=X=X=X",
"=X=X=X=X=X=X* =Xs g N C P ( *.] =.U.Y._ P _ I.+X*X&X*XG.,.'.%X*X&X$XI.#.~ #./.+X1.! P ] E j i a =X=X# =X=X=X=X=X=X=X=X=X=X=X=X=X",
"=X=X=X=X=X=X# =Xe s C B E { *.W ;.].~.( K P X.D.OX&X*XI.H.&X*X%X].I.o.^ ] +./.].<.~ P ] W Z d r =X=X# # O $ $ O =X=X=X=X=X=X=X=X",
"=X=X=X=X=X=X# =Xt s M M E { $.W ;.@X'.>.^ C B _ F.'.%X`./.%X'.P.>.| Z T %.G.OX].<.~ I ( I B k r =X=X% # # # # # O =X=X=X=X=X=X=X",
"=X=X=X=X=X=X# =Xs h l l R [ $.W ;.@X%X`.M.! A C / :.(.$X&X@XM.[ N N Z o.Y.%X%X^.-.E I ( C l j s =X=X% =X=X=X=X=X=X# =X=X=X=X=X=X",
"=X=X=X=X=X=X# =X( K s j N / #.W =._.@X%X'.G.Q C C C ^ ).@X!.' N M V N.@X$X+X~.%.K N I [ C d h ~ =X=X% Y e.6.=X=X=X=X# # =X=X=X=X",
"=X=X=X=X=X=X- u.n.=Xy z N P W ~ ~ o.^.$X%X@X(.M.( N B ;.D.' M m T K.OX@X].I.o.T K E I C M h d =Xj.G % Y e.e.t.Z.R.B.t.7 O =X=X=X",
"=X=X=X=X=X=X- p.B.=XM s l B P P I W o.G.].$X*XOX!.M.V ' _ K ;.N.D.`._.~.I.o.K K W W P l f d =X=Xh.H $ < < < 1 v.W.Z.V.J # =X=X=X",
"=X=X=X=X=X=X- u.=X=XW l l n M M C P M ) =.M.!.@X*X@XO.! T =.~.^.L.H.<.$. ./ I I W Z l h u =X=X=Xj.G o .     o U h.R.C.6 # =X=X=X",
"=X=X=X=X=X=X; d.Z.=X=X] Z j k j n N M M M C  .L..X#X(.=.O.(.J.@.{ [ ( ~ P { ( I N a r e =X=X=Xd.e.J o =X=X=X=Xo 7 Z.=X- # =X=X=X",
"=X=X=X=X=X=X- u.R. X=X=X( ] / f y h C N C I  .[ / [ $.L.!.!.' m l k K ~ C k j h s a r =X=XB.j.Y e.J o =X=X=X=XO 4 h.E.U # =X=X=X",
"=X=X=X=X=X=X=X; w.oXoX=X=X=X=XQ ^ R z d f j P I / }  .&.,...( E C c k j d a a k E =X=X=Xh.u.u.r.< # =X=X=X=X=XO 7 B.W.2.# =X=X=X",
"=X=X=X=X=X=X=X$ 5..XXX X X=X=X=X[ / L L V b n l b V M L L b M b l j l Z c a =X=X=Xm.x.h.s.y.r.s.= . =X=X=X=X=Xo 7 V.W.2.# =X=X=X",
"=X=X=X=X=X=X=X# 5.|. XoXoXoX=X=X=X=X .} } P g v F F D D D D F x y y B ~ ] =X=X=X=Xg.g.g.y.6.r.d.- . =X=X=X=X=X; G B.x.q O =X=X=X",
"=X=X=X=X=X=X=X# 5.|.=XoXoX XoX=X=X=X=X=X=X=X=X.X.X.X.X.X.X.X.X=X=X=X=X=X=X=Xx.v.g.B.x.g.y.9.r.d.-   =X=X=X=X# 6.B.h.; O =X=X=X=X",
"=X=X=X=X=X=X=X# H R.=X=X=X=X=XoXoXoX XoX=X=X=X=X=X=X=X=X=X=X=X=X=X.XZ.g.g.x.x.B.x.B.d.r.9.6.u.d.=     o o < 6.B.B.6.= =X=X=X=X=X",
"=X=X=X=X=X=X=X=X3 2.{.oX=X=X=X=XoXoXoX X X X|. X.X X X|. X X X X|. XW.R.A.B.B.x.B.x.d.e.6.u.e.7 7 8 8 8 J 4.B.B.4.< =X=X=X=X=X=X",
"=X=X=X=X=X=X=X=XX 4 [.XX=X=X=X=XXXXX XXX XXX XXX XXX X X X X X X X X|.|.{.V.v.B.B.B.d.e.e.d.6.O Y u.j.x.B.B.B.G 1   =X=X=X=X=X=X",
"=X=X=X=X=X=X=X=X=X< c.}.oX=X=X=XXXXXXX XXX XXX XXX XXX X X X X}. X|.|.|.{.V.B.B.B.B.d.e.e.t.4.# 6.B.x.B.B.d.6.= . =X=X=X=X=X=X=X",
"=X=X=X=X=X=X=X=X=X=X: S.XXoX=X=X=XXXXX XXXXX}.XXXX X X X X X X X X X|.}.W.C.V.B.v.p.y.y.e.4 < y.d.h.p.4 ; ; % =X=X=X=X=X=X=X=X=X",
"=X=X=X=X=X=X=X=X=X=X# d.{.XX=X=X=X=X XXX XXX XXX X XXX X X X X X|.|.|.[.T.V.V.v.v.u.y.6.=X# O 3 3 3 < =X=X=X=X=X=X=X=X=X=X=X=X=X",
"=X=X=X=X=X=X=X=X=X=X+ q b.XX=X=X=X=X XXX XXX X X X X X X X X X X X|.|.E.V.B.V.g.s.y.y.Y =X3 5 X =X=X=X=X=X=X=X=X=X=X=X=X=X=X=X=X",
"=X=X=X=X=X=X=X=X=X=X=XX 9.}.=X=X=X=XXX XXX XXX X X X X X X X X}.|.}.{.R.V.B.x.s.e.e.e.=XX H z.=X=X=X=X=X=X=X=X=X=X=X=X=X=X=X=X=X",
"=X=X=X=X=X=X=X=X=X=X=XO 3.T.{.=X=X=X=XXXXX XXXXX X X X XXX}.}. X|.}.T.V.v.v.p.y.e.e.9.=XO H z.z.z.l.=X=X=X=X=X=X=X=X=X=X=X=X=X=X",
"=X=X=X=X=X=X=X=X=X=X=X=X= 6 x.[.=X=X=X=X XXX X XXX X X X X X X}.}.Z.V.v.v.p.y.y.e.=X=X+ 3.a.z.z.z.z.l.=X=X=X=X=X=X=X=X=X=X=X=X=X",
"=X=X=X=X=X=X=X=X=X=X=X=Xw w 6 d.[.}. X X X X X X XXX X X X}.E.T.T.B.v.g.p.y.9.y.e.: - w a.z.z.z.z.z.z.=X=X=X=X=X=X=X=X=X=X=X=X=X",
"=X=X=X=X=X=X=X=X=X=X=X=Xz.q.: H c.{.[. X X X X X X}.{.{.{.{.Z.B.v.v.g.p.y.y.y.Y G < 0 l.z.z.z.z.z.z.l.=X=X=X=X=X=X=X=X=X=X=X=X=X",
"=X=X=X=X=X=X=X=X=X=X=X=Xz.l.i.: 0 d.d.Q.}.}.}.}.}.}.Z.C.C.V.v.v.x.x.u.y.e.6.6.J # 3.k.l.l.l.l.z.l.k.=X=X=X=X=X=X=X=X=X=X=X=X=X=X",
"=X=X=X=X=X=X=X=X=X=X=X=X=X=Xl.q.0 - ; y.x.x.x.C.T.S.V.b.V.B.v.x.u.u.y.y.8.; # 3 7.a.l.l.l.l.z.l.=X=X=X=X=X=X=X=X=X=X=X=X=X=X=X=X",
"=X=X=X=X=X=X=X=X=X=X=X=X=X=X=Xz.0.0 0 6 5 0 p.v.V.V.V.V.B.B.v.c.s.y.8 < 4 0 0 2.l.l.l.l.l.z.l.=X=X=X=X=X=X=X=X=X=X=X=X=X=X=X=X=X",
"=X=X=X=X=X=X=X=X=X=X=X=X=X=X=Xl.l.l.l.0 3 4 U 5.9.7.8.7.5.7.7.5.4.G 5 < 5 i.l.l.l.l.l.l.k.l.k.=X=X=X=X=X=X=X=X=X=X=X=X=X=X=X=X=X",
"=X=X=X=X=X=X=X=X=X=X=X=X=X=X=X=X=X=Xk.l.k.0.- * # = * * * * * * * * 3.k.k.k.k.k.k.l.l.l.=X=X=X=X=X=X=X=X=X=X=X=X=X=X=X=X=X=X=X=X",
"=X=X=X=X=X=X=X=X=X=X=X=X=X=X=X=X=X=X=X=Xk.k.q.q.q.q.q.0.0.0.0.0.0.0.i.k.k.k.l.k.k.k.=X=X=X=X=X=X=X=X=X=X=X=X=X=X=X=X=X=X=X=X=X=X",
"=X=X=X=X=X=X=X=X=X=X=X=X=X=X=X=X=X=X=X=X=Xk.k.k.k.l.k.k.k.k.k.k.k.k.k.l.k.k.k.k.k.=X=X=X=X=X=X=X=X=X=X=X=X=X=X=X=X=X=X=X=X=X=X=X",
"=X=X=X=X=X=X=X=X=X=X=X=X=X=X=X=X=X=X=X=X=X=X=X=X=X=Xi.k.k.k.k.k.k.k.k.k.k.k.=X=X=X=X=X=X=X=X=X=X=X=X=X=X=X=X=X=X=X=X=X=X=X=X=X=X",
"=X=X=X=X=X=X=X=X=X=X=X=X=X=X=X=X=X=X=X=X=X=X=X=X=X=X=X=X=X=X=X=X=X=X=X=X=X=X=X=X=X=X=X=X=X=X=X=X=X=X=X=X=X=X=X=X=X=X=X=X=X=X=X=X",
"=X=X=X=X=X=X=X=X=X=X=X=X=X=X=X=X=X=X=X=X=X=X=X=X=X=X=X=X=X=X=X=X=X=X=X=X=X=X=X=X=X=X=X=X=X=X=X=X=X=X=X=X=X=X=X=X=X=X=X=X=X=X=X=X",
"=X=X=X=X=X=X=X=X=X=X=X=X=X=X=X=X=X=X=X=X=X=X=X=X=X=X=X=X=X=X=X=X=X=X=X=X=X=X=X=X=X=X=X=X=X=X=X=X=X=X=X=X=X=X=X=X=X=X=X=X=X=X=X=X",
"=X=X=X=X=X=X=X=X=X=X=X=X=X=X=X=X=X=X=X=X=X=X=X=X=X=X=X=X=X=X=X=X=X=X=X=X=X=X=X=X=X=X=X=X=X=X=X=X=X=X=X=X=X=X=X=X=X=X=X=X=X=X=X=X",
"=X=X=X=X=X=X=X=X=X=X=X=X=X=X=X=X=X=X=X=X=X=X=X=X=X=X=X=X=X=X=X=X=X=X=X=X=X=X=X=X=X=X=X=X=X=X=X=X=X=X=X=X=X=X=X=X=X=X=X=X=X=X=X=X",
"=X=X=X=X=X=X=X=X=X=X=X=X=X=X=X=X=X=X=X=X=X=X=X=X=X=X=X=X=X=X=X=X=X=X=X=X=X=X=X=X=X=X=X=X=X=X=X=X=X=X=X=X=X=X=X=X=X=X=X=X=X=X=X=X",
"=X=X=X=X=X=X=X=X=X=X=X=X=X=X=X=X=X=X=X=X=X=X=X=X=X=X=X=X=X=X=X=X=X=X=X=X=X=X=X=X=X=X=X=X=X=X=X=X=X=X=X=X=X=X=X=X=X=X=X=X=X=X=X=X",
"=X=X=X=X=X=X=X=X=X=X=X=X=X=X=X=X=X=X=X=X=X=X=X=X=X=X=X=X=X=X=X=X=X=X=X=X=X=X=X=X=X=X=X=X=X=X=X=X=X=X=X=X=X=X=X=X=X=X=X=X=X=X=X=X"
};
