/* XPM */
static char *coffee[] = {
/* columns rows colors chars-per-pixel */
"32 32 158 2 ",
"   c #46464A",
".  c #4A474A",
"X  c #4C494B",
"o  c #544945",
"O  c #5E4D44",
"+  c #584E49",
"@  c #5C5049",
"#  c #524F51",
"$  c #565354",
"%  c #585353",
"&  c #5F5959",
"*  c #624C41",
"=  c #67605E",
"-  c #68615F",
";  c #666262",
":  c #6C6664",
">  c #6F6865",
",  c #736C6A",
"<  c #7A716D",
"1  c #757272",
"2  c #7E7672",
"3  c #7D7A7A",
"4  c #9D4E1D",
"5  c #8D4E28",
"6  c #8F512A",
"7  c #9C5324",
"8  c #825739",
"9  c #885B3A",
"0  c #945C35",
"q  c #A35420",
"w  c #AB5C25",
"e  c #A45B29",
"r  c #A7602C",
"t  c #AF632F",
"y  c #B16127",
"u  c #B26329",
"i  c #B86629",
"p  c #BB6C2E",
"a  c #A66635",
"s  c #BB6E33",
"d  c #BF7131",
"f  c #C06F2F",
"g  c #C27333",
"h  c #C67937",
"j  c #CA7A35",
"k  c #C37938",
"l  c #CB7D39",
"z  c #896040",
"x  c #867B76",
"c  c #827E7D",
"v  c #8A7F79",
"b  c #CE823C",
"n  c #D1843E",
"m  c #BF875E",
"M  c #8C827C",
"N  c #928073",
"B  c #92867F",
"V  c #CF8540",
"C  c #CA874C",
"Z  c #D38740",
"A  c #D38A44",
"S  c #D98E44",
"D  c #D48C49",
"F  c #DB944A",
"G  c #C28558",
"H  c #C38A5A",
"J  c #D69555",
"K  c #D89452",
"L  c #DE9A52",
"P  c #DC9C5B",
"I  c #D4955A",
"U  c #E29E52",
"Y  c #E09F59",
"T  c #E3A156",
"R  c #E4A55C",
"E  c #D89A60",
"W  c #CA9D7B",
"Q  c #DDA265",
"!  c #DFA870",
"~  c #E1A665",
"^  c #E5A963",
"/  c #E9AD64",
"(  c #E5AD6A",
")  c #EBB168",
"_  c #E3AE74",
"`  c #E6B175",
"'  c #ECBB7A",
"]  c #878381",
"[  c #8C8682",
"{  c #8C8A89",
"}  c #928780",
"|  c #958B84",
" . c #998D85",
".. c #938E8B",
"X. c #9E9087",
"o. c #92908F",
"O. c #9F958E",
"+. c #989594",
"@. c #969392",
"#. c #A4948B",
"$. c #A9998F",
"%. c #A49A91",
"&. c #AB9C92",
"*. c #ACA095",
"=. c #A4A19F",
"-. c #ACA49C",
";. c #B1A196",
":. c #B8A293",
">. c #B6A79B",
",. c #B9A99E",
"<. c #A6A3A1",
"1. c #A9A6A4",
"2. c #ABA8A5",
"3. c #B7ABA0",
"4. c #BEAFA2",
"5. c #BEB0A5",
"6. c #BBB2A9",
"7. c #EABC82",
"8. c #E9BE8B",
"9. c #C1B3A6",
"0. c #C4B6A9",
"q. c #C5B9AD",
"w. c #C6BDB3",
"e. c #C9BDB0",
"r. c #ECC18C",
"t. c #F0C58C",
"y. c #F2CA8E",
"u. c #EDC490",
"i. c #EECA9C",
"p. c #F2CA92",
"a. c #F1CD9B",
"s. c #F6D59E",
"d. c #CDC1B4",
"f. c #D0C4B7",
"g. c #D0C5B8",
"h. c #D5CABD",
"j. c #D8CDBF",
"k. c #EFCFA6",
"l. c #F6D5A2",
"z. c #F6D8AA",
"x. c #F9DEAD",
"c. c #F1D4AA",
"v. c #F6DCB3",
"b. c #F9DFB3",
"n. c #F7DFB9",
"m. c #F8E0B6",
"M. c #F9E3BB",
"N. c #DCD2C5",
"B. c #DFD5C8",
"V. c #E0D6C9",
"C. c #E4DBCD",
"Z. c #E6DED1",
"A. c #E8DFD1",
"S. c #FBE9C4",
"D. c #FCECCB",
"F. c #FDEFD3",
"G. c #FDF1D4",
"H. c None",
/* pixels */
"H.H.H.H.H.H.H.H.H.H.H.H.H.H.H.H.H.H.H.H.H.H.H.H.H.H.H.H.H.H.H.H.",
"H.H.H.H.H.H.H.H.H.H.H.H.H.H.H.H.H.H.H.H.H.H.H.H.H.H.H.H.H.H.H.H.",
"H.H.H.H.H.H.H.H.H.H.H.H.H.H.H.H.H.H.H.H.H.H.H.H.H.H.H.H.H.H.H.H.",
"H.H.H.H.H.H.H.H.H.H.H.H.H.H.H.H.H.H.H.H.H.H.H.H.H.H.H.H.H.H.H.H.",
"H.H.H.H.H.H.H.H.H.H.H.H.H.H.H.H.H.H.H.H.H.H.H.H.H.H.H.H.H.H.H.H.",
"H.H.H.H.H.H.H.H.H.H.H.H.H.H.H.H.H.H.H.H.H.H.H.H.H.H.H.H.H.H.H.H.",
"H.H.H.H.H.H.H.H.@ H.8 5 5 6 6 5 6 0 * o H.H.H.H.H.H.H.H.H.H.H.H.",
"H.H.H.H.H.H.O * a q w w i f f p w y q 7 9 X H.H.H.H.H.H.H.H.H.H.",
"H.H.H.H.H.z r w y i h D F l n ^ ( D g y w 7 H.H.H.H.H.H.H.H.H.H.",
"H.H.H.H.  w w d l j T r.' ^ T s.S.p.L A h p i H.  H.H.H.H.H.H.H.",
"H.H.H.+ 0 y h U L K ^ M.D.p.) z.G.l./ p.P A s e o H.H.H.H.H.H.H.",
"H.H.H.O w g F R r.' F u.F.n.l.F.n.( ^ x./ S l w H..   H.H.H.H.H.",
"H.H.H.O w g F R i.z.P A 7.n.S.u.K J a.b.R S l w H.# $   H.H.H.H.",
"H.H.H.< H y n F ` M.v._ D ! 8.C I c.m._ A n s s N ,  .,.3., H.H.",
"H.H.H.v H.f g j V Q i.M.k.E P 7.y.y.( A n p w H.} $ % x q.| H.H.",
"H.H.H.M d.H.l g s g b ( 8.7.r.~ D A b h i 4 H.$.x   H.X | | # H.",
"H.H.H.; 6.A.H.H.V k d h b K I l p d u w G :.*.#.& H.H.X  .%.H.H.",
"H.H.H.$ -.A.Z.H.H.( H.H W W W m t C H.H.9.,.#.#.# H.H.< %.x H.H.",
"H.H.H.H.[ N.H.H.Z.Z.Z.Z.Z.Z.C.Z.C.f.0.5.5.&.#.| - - < *.} H.H.H.",
"H.H.H.H.: w.H.H.A.Z.C.C.C.C.C.B.C.V.d.9.9.&.#.< X.;.*.M # H.H.H.",
"H.H.H.H.H...V.H.H.C.Z.C.C.C.C.C.C.N.d.0.>.#.< : M M > H.H.H.H.H.",
"H.H.H.H.H.; 5.H.H.C.C.C.C.C.C.C.B.h.q.,.$.B ; 1 H.H.H.H.H.H.H.H.",
"H.H.H.H.H.H.[ q.H.H.A.C.C.C.C.B.j.q.,.$.#., c 2.2.H.H.H.H.H.H.H.",
"H.H.H.H.H.H.[ [ w.C.C.C.C.B.N.d.0.>.$.X.< 3 =.2.2.H.H.H.H.H.H.H.",
"H.H.H.H.H.H.H.{ c %.q.g.h.w.q.5.>.#.M < ] =.2.2.H.H.H.H.H.H.H.H.",
"H.H.H.H.H.H.H.H.o.c 2 X.%.%.O.O.B 1 3 ..<.2.2.H.H.H.H.H.H.H.H.H.",
"H.H.H.H.H.H.H.H.H.H.+.c 3 3 3 3 3 @.<.<.<.H.H.H.H.H.H.H.H.H.H.H.",
"H.H.H.H.H.H.H.H.H.H.H.<.<.<.<.<.<.<.<.<.H.H.H.H.H.H.H.H.H.H.H.H.",
"H.H.H.H.H.H.H.H.H.H.H.H.H.H.H.H.H.H.H.H.H.H.H.H.H.H.H.H.H.H.H.H.",
"H.H.H.H.H.H.H.H.H.H.H.H.H.H.H.H.H.H.H.H.H.H.H.H.H.H.H.H.H.H.H.H.",
"H.H.H.H.H.H.H.H.H.H.H.H.H.H.H.H.H.H.H.H.H.H.H.H.H.H.H.H.H.H.H.H.",
"H.H.H.H.H.H.H.H.H.H.H.H.H.H.H.H.H.H.H.H.H.H.H.H.H.H.H.H.H.H.H.H."
};
