/* XPM */
static char *collectible[] = {
/* columns rows colors chars-per-pixel */
"32 32 207 2 ",
"   c #5F5752",
".  c #6D6359",
"X  c #796A58",
"o  c #6D6662",
"O  c #796E64",
"+  c #766E6C",
"@  c #7A716E",
"#  c #797676",
"$  c #7B7878",
"%  c #AA5C25",
"&  c #AB5F29",
"*  c #AE642C",
"=  c #A5632F",
"-  c #B2642A",
";  c #BC6C2E",
":  c #AE6934",
">  c #B36D35",
",  c #BE6F30",
"<  c #BF7234",
"1  c #B9753A",
"2  c #BB783C",
"3  c #B7773D",
"4  c #C06F2E",
"5  c #C37533",
"6  c #C57936",
"7  c #CB7C36",
"8  c #C87C38",
"9  c #C27A3A",
"0  c #8E7554",
"q  c #8E795D",
"w  c #937A57",
"e  c #9A7E56",
"r  c #937C5C",
"t  c #9C7F58",
"y  c #A37042",
"u  c #B37F49",
"i  c #B77C44",
"p  c #A37C52",
"a  c #86796E",
"s  c #8F7E69",
"d  c #887966",
"f  c #937E60",
"g  c #8B7E76",
"h  c #827C7A",
"j  c #8B7E78",
"k  c #CD813C",
"l  c #C3893E",
"z  c #D1853E",
"x  c #9D835C",
"c  c #AB814C",
"v  c #B3814D",
"b  c #A38255",
"n  c #AA8A5B",
"m  c #A78458",
"M  c #B38453",
"N  c #BA935A",
"B  c #B9925A",
"V  c #9C8464",
"C  c #92806D",
"Z  c #968063",
"A  c #8F8070",
"S  c #86817B",
"D  c #8B827C",
"F  c #918376",
"G  c #92857D",
"H  c #9B8B7B",
"J  c #9F917F",
"K  c #AA8E63",
"L  c #A68D68",
"P  c #AF926A",
"I  c #AD9066",
"U  c #B59463",
"Y  c #BE9B65",
"T  c #AF9270",
"R  c #C68C40",
"E  c #CA8844",
"W  c #D48A43",
"Q  c #D98E43",
"!  c #D38A46",
"~  c #CD9649",
"^  c #CF984A",
"/  c #CC9447",
"(  c #D5934D",
")  c #DB954A",
"_  c #D29C4D",
"`  c #DD984D",
"'  c #C98D50",
"]  c #C19554",
"[  c #CE955A",
"{  c #C49A59",
"}  c #D59352",
"|  c #DE9C55",
" . c #D5945B",
".. c #DF9F59",
"X. c #D59B57",
"o. c #E29F55",
"O. c #CEA15F",
"+. c #D6A253",
"@. c #D8A456",
"#. c #D5A45A",
"$. c #DAA65A",
"%. c #DBA95D",
"&. c #E3A156",
"*. c #E4A65D",
"=. c #E7AA5E",
"-. c #C29C63",
";. c #CA996D",
":. c #CC9F7B",
">. c #CEA260",
",. c #CBA56B",
"<. c #C7A167",
"1. c #D1A766",
"2. c #DEA364",
"3. c #DDAD63",
"4. c #D1A869",
"5. c #DBAE6A",
"6. c #D9A76E",
"7. c #DFB067",
"8. c #DFB169",
"9. c #CCA97A",
"0. c #C7A87A",
"q. c #D3AC74",
"w. c #DCB374",
"e. c #DCB67D",
"r. c #D6B073",
"t. c #E3A662",
"y. c #E2AB65",
"u. c #E4AE6B",
"i. c #EAAE64",
"p. c #E1B36D",
"a. c #E3AD72",
"s. c #E2B672",
"d. c #E3B876",
"f. c #E4BB7A",
"g. c #E9B87B",
"h. c #F0BE78",
"j. c #858180",
"k. c #948B84",
"l. c #9A8E85",
"z. c #918E8D",
"x. c #9D948B",
"c. c #979493",
"v. c #AB9581",
"b. c #A4948B",
"n. c #A8998F",
"m. c #A69583",
"M. c #A49A91",
"N. c #AC9D93",
"B. c #B7A18B",
"V. c #BCA98C",
"C. c #BEA783",
"Z. c #ABA49B",
"A. c #B3A599",
"S. c #B4A89B",
"D. c #B9AA9E",
"F. c #B3A591",
"G. c #A6A3A1",
"H. c #A9A6A2",
"J. c #ACA9A4",
"K. c #BFAFA1",
"L. c #BEB0A3",
"P. c #BAB2A8",
"I. c #C5AC86",
"U. c #C3AD8C",
"Y. c #C8AE88",
"T. c #D0B087",
"R. c #DBB780",
"E. c #C5AD91",
"W. c #CAB59E",
"Q. c #DABE95",
"!. c #EABC84",
"~. c #E2BD85",
"^. c #C0B2A4",
"/. c #C3B6A9",
"(. c #C6B8AA",
"). c #CABAA8",
"_. c #CABEB2",
"`. c #C7BDB1",
"'. c #E3C18E",
"]. c #EDC28D",
"[. c #F2C98E",
"{. c #E2C69A",
"}. c #E9C99A",
"|. c #F2CB94",
" X c #F2CE9C",
".X c #D1C0AA",
"XX c #CDC1B3",
"oX c #DFCCB1",
"OX c #D6CBBD",
"+X c #D0C5B7",
"@X c #E3C9A2",
"#X c #F6D6A3",
"$X c #F1D3AC",
"%X c #F6DAAE",
"&X c #E5D1B3",
"*X c #E3D4BD",
"=X c #F7DFB6",
"-X c #F9DFB3",
";X c #FAE4BD",
":X c #FAE2B5",
">X c #DCD3C6",
",X c #E3DBCD",
"<X c #E1D7C7",
"1X c #FCEAC5",
"2X c #FDEDCD",
"3X c #FEF1D5",
"4X c #FEF2D8",
/* pixels */
"+.3.p.p.p.y.@.s.f.d.@.%.p.8.s.s.+.p.f.d.$.$.p.7.p.s.@.+.@.+.^ l ",
"3.3.p.p.y.3.7.f.s.3.3.y.p.s.f.f.p.y.p.f.7.7.p.p.7.%.3.%.+.3.$.^ ",
"p.p.p.p.%.$.p.d.p.@.8.p.p.f.f.s.f.3.@.d.s.s.p.p.7.+.p.7.$.s.%.@.",
"p.p.p.f.%.$.p.s.s.8.p.p.s.s.%.@.p.p.p.7.s.s.p.$.+.+.7.p.d.f.7.+.",
"$.7.s.f.s.p.p.%.3.p.s.3.@.5.5.6.7.8.w.d.f.d.f.7.3.7.p.s.d.%.$.+.",
"@.7.s.f.f.f.p.%.O.,.L 0 0 r r f x x <.r.d.d.f.p.p.p.3.p.s.$.@.+.",
"8.f.f.f.s.8.4.U V r M u u u u u c c 0 V b ] 8.$.$.p.+.%.p.p.3.+.",
"$.7.s.8.8.K 0 b i > - % - 4 4 4 % - * = y w V 4.p.p.7.p.p.p.%.+.",
"%.7.s.7.n c : & * - 7 W ) 7 7 t.u.W 5 & % 3 U x 1.p.s.p.3.7.%.@.",
"f.f.f.K b 1 % , 7 7 o.].h.t.o.#X1X|.` ! 5 ; 6 B r w.s.%.+.+.%.p.",
"f.w.1.x u * 8 &.o.} t.1X2X|.u.%X3X#X=.|.X.Q ; 3 x Y $.%.7.7.p.p.",
"s.7.N q 1 5 Q *.].g.! ].4X=X#X4X;Xu.=.-Xy.Q 8 % c X n n 1.p.7.7.",
"@.@.B x 1 ; ) &. X%X .W !.=X2X!.} }  X:X*.Q 8 * c X L P x <.%.+.",
"p.8.Y C [ * k ` s.;X=Xa.! a.!.!  .$X:Xu.z z ; E P @ v.0.0.d Y 7.",
"7.7.Y S q.9 , 8 z 2. X=X$X . .!.|.[.u.W z ; 2 4.J   X A (.m.x 8.",
"@.3.-.A Q.5.! < ; 5 8 u.!.!.[.2.! W k 5 * 3 q.B.j 0 5.x l.v.x 8.",
"f.f.w.w P.$X~.%.( 5 4 7 k ( X.8 ; < > 2  .9.B.b.. ' 8.e l.Z.e l ",
"d.d.8.e A.&X*X'.8.3.| ;.9.:.:.;.' X.6.T.U.D.b.b.. ] { s N.D B ^ ",
"8.p.p.U H Q.~.'.*X*X{.~.{.{.@X{.@X.XW.K.^.N.b.k.. X a Z.H r %.@.",
"+.3.s.w.d XXe.8.&X,X,X,X,X,X,X,X>X<X+XL.^.n.b.# b.A.A.G f w.s.p.",
"%.p.s.s.B k.oXw.{.,X,X,X,X,X,X,X,X>X_.^.D.b.s o D A q m 5.d.8.%.",
"s.d.d.p.#.Z L.f.w.<X,X,X,X,X,X,X>X>X^.K.n.T d H I { w.p.p.y.%.@.",
"p.p.p.p.p.U J W.d.'.<X,X,X,X,X,XOX(.D.n.v.V D J.S.,.d.d.8.+.3.8.",
"$.7.p.$.w.e.T S ).&X<X,X,X>X>XXX(.D.n.l.a h G.J.H.I.p.p.8.3.8.s.",
"$.7.p.@.p.d.Y.k.h M._.+XOX(.(.P.S.b.S + j.G.J.Z.C.8.3.7.p.p.3.3.",
"p.p.p.p.p.p.8.I.x.$ @ l.M.M.M.x.G + $ z.G.G.S.Y.8.8.+.3.f.s._ l ",
"s.%.%.p.8.7.#.w.e.V.x.$ $ $ # # $ c.Z.G.Z.V.e.1.%.8.d.s.8.s.3._ ",
"7.%.%.p.s.8.%.s.s.3.0.0.Y.F.Z.Z.Z.Z.Z.V.q.8.d.3.3.8.d.w.8.3.%.+.",
"+.%.p.p.f.f.p.p.3.+.p.d.f.#.4.r.>.>.>.~.3.@.8.p.p.8.p.8.p.@.+.+.",
"p.p.p.@.7.7.+.8.p.8.p.p.p.y.p.p.8.%.@.s.8.p.p.p.3./ @.3.s.p.#.R ",
"$.%.3.+.7.p.%.%.3.p.3.7.8.p.8.3.s.3.%.8.3.3.p.3.#.~ _ %.8.5._ R ",
"l _ +.+.3.p.s.$.$.p.@.%.8.p.%.@.8.p.s.p.$.$.p.$.+.$.@.%.s.@./ R "
};
