/* XPM */
static char *exit[] = {
/* columns rows colors chars-per-pixel */
"32 32 228 2 ",
"   c #000000",
".  c #010000",
"X  c #010100",
"o  c #020201",
"O  c #020202",
"+  c #090807",
"@  c #0A0807",
"#  c #0B0807",
"$  c #0B0908",
"%  c #0B0B0A",
"&  c #0C0B0A",
"*  c #120E0B",
"=  c #150E0A",
"-  c #13100E",
";  c #15100E",
":  c #17120E",
">  c #17120F",
",  c #18120E",
"<  c #19120E",
"1  c #18120F",
"2  c #0F1011",
"3  c #121313",
"4  c #151310",
"5  c #161310",
"6  c #181210",
"7  c #1A1613",
"8  c #24211B",
"9  c #262421",
"0  c #352C23",
"q  c #372E25",
"w  c #3E3225",
"e  c #36312B",
"r  c #32302C",
"t  c #3E3529",
"y  c #3F3629",
"u  c #39342E",
"i  c #3E372E",
"p  c #3F382D",
"a  c #3F3A35",
"s  c #403629",
"d  c #40362A",
"f  c #40362B",
"g  c #40372D",
"h  c #40392F",
"j  c #574A3B",
"k  c #624828",
"l  c #664D28",
"z  c #6A522D",
"x  c #6F552E",
"c  c #685233",
"v  c #6A5535",
"b  c #755C3E",
"n  c #7A603F",
"m  c #524C42",
"M  c #534C42",
"N  c #524C43",
"B  c #534C43",
"V  c #564E42",
"C  c #534D44",
"Z  c #5E5043",
"A  c #5F5549",
"S  c #625341",
"D  c #6C5C45",
"F  c #6F5E47",
"G  c #61584B",
"H  c #62584B",
"J  c #6F5E48",
"K  c #6E5D4B",
"L  c #725D43",
"P  c #705D45",
"I  c #715D45",
"U  c #725D45",
"Y  c #705D47",
"T  c #715D47",
"R  c #725D46",
"E  c #715E48",
"W  c #705E4A",
"Q  c #76624A",
"!  c #7A6448",
"~  c #7E6748",
"^  c #9B651D",
"/  c #BD7109",
"(  c #BE7109",
")  c #BD710A",
"_  c #BD720B",
"`  c #AB6D16",
"'  c #A36A1A",
"]  c #A46A19",
"[  c #AA6D18",
"{  c #B67315",
"}  c #B77315",
"|  c #B67316",
" . c #B77316",
".. c #B67317",
"X. c #B77317",
"o. c #B77416",
"O. c #B77417",
"+. c #BA7210",
"@. c #B87212",
"#. c #B87314",
"$. c #B87416",
"%. c #B87417",
"&. c #B47319",
"*. c #B67318",
"=. c #B67319",
"-. c #B57419",
";. c #B67418",
":. c #B77418",
">. c #B77518",
",. c #B67419",
"<. c #B77519",
"1. c #B4741A",
"2. c #B6741A",
"3. c #B1741E",
"4. c #B87518",
"5. c #BA7619",
"6. c #815921",
"7. c #885C24",
"8. c #8A632F",
"9. c #936323",
"0. c #946424",
"q. c #966626",
"w. c #996621",
"e. c #9F6E25",
"r. c #9F6E27",
"t. c #8F6D3F",
"y. c #936C36",
"u. c #936C37",
"i. c #946C35",
"p. c #946C36",
"a. c #9F743A",
"s. c #9F753A",
"d. c #9D753F",
"f. c #9E753F",
"g. c #9E763E",
"h. c #9E763F",
"j. c #AA7325",
"k. c #AB7325",
"l. c #AB7326",
"z. c #AA7327",
"x. c #AB7425",
"c. c #AB7426",
"v. c #AA7427",
"b. c #AB7427",
"n. c #AC7425",
"m. c #A7742D",
"M. c #A7742E",
"N. c #A7752E",
"B. c #A97328",
"V. c #A97329",
"C. c #A87528",
"Z. c #AA7428",
"A. c #AB7428",
"S. c #AA7429",
"D. c #AB7429",
"F. c #AB7529",
"G. c #A8742B",
"H. c #A8742C",
"J. c #A9742C",
"K. c #A8752C",
"L. c #A8742D",
"P. c #A8752D",
"I. c #A8762D",
"U. c #B17421",
"Y. c #B17521",
"T. c #B27520",
"R. c #B27522",
"E. c #B77B27",
"W. c #BE7B20",
"Q. c #B37928",
"!. c #B27929",
"~. c #B67A28",
"^. c #B77A28",
"/. c #B67B28",
"(. c #B77B28",
"). c #B67A29",
"_. c #B67B29",
"`. c #A67531",
"'. c #A57432",
"]. c #A47532",
"[. c #A57532",
"{. c #A57533",
"}. c #A67532",
"|. c #A67533",
" X c #A47635",
".X c #A67636",
"XX c #AD7A33",
"oX c #A17538",
"OX c #A07439",
"+X c #A5783A",
"@X c #AD7D38",
"#X c #B17B30",
"$X c #856C4A",
"%X c #9A7440",
"&X c #9E7540",
"*X c #9E7640",
"=X c #997644",
"-X c #987645",
";X c #9C7644",
":X c #977549",
">X c #93754C",
",X c #99784C",
"<X c #9A784C",
"1X c #9B784C",
"2X c #9A784D",
"3X c #9B7B4C",
"4X c #9A794F",
"5X c #867258",
"6X c #967A54",
"7X c #977B55",
"8X c #957B57",
"9X c #997A51",
"0X c #9B7E55",
"qX c #947B59",
"wX c #A67C41",
"eX c #A47C44",
"rX c #A57D44",
"tX c #A57D45",
"yX c #A67D44",
"uX c #A57D46",
"iX c #A47D47",
"pX c #AA7F45",
"aX c #A17B48",
"sX c #A37C48",
"dX c #A27E4B",
"fX c #8B7A64",
"gX c #8A7C68",
"hX c #A6824F",
/* pixels */
"                                                                ",
"                                                                ",
"                  O   O : 1 : % - 1 5 $                         ",
"                    7 j >X7X0XA 5X3XqX! 0 #                     ",
"                  w :XwXR.].@XK ;X3.M.(.sXb *                   ",
"                0  X;.I.;.s.eXK h.%.b...M.XXL $                 ",
"                S W.( b.*.M.#XF ;X#.b.O.M.].qX:                 ",
"              2 gX5.( z...z.E.U h.%.b.O.z.3.hXe                 ",
"              3 fX#._ b...b.E.U ;X;.n.;.A.#.pXV                 ",
"              r 7X+.( b...z.E.U h.#.b.;.A.#.+XQ $               ",
"              C sX_ ( S.*.z.(.U h.#.b.;.z...].9X1               ",
"              B tX( _ b...z.(.U ;X#.b.#.c...].1X1               ",
"              B tX( ( S...z.(.U ;X%.c.%.c...].1X1               ",
"              B tX( _ b...n.(.U OX%.A.*.c...].1X1               ",
"              B tX_ _ z.;.e.I.E -X' A.*.c...'.1X1               ",
"              B tX( _ S.` x v G D z 7.5.A.#.].3X1               ",
"              B tX( ( n.[ l c G F k 6.;.c...'.1X1               ",
"              B tX_ _ b.;.e.I.E -X' b...c...].1X1               ",
"              B tX( _ S.*.n.^.U h.%.b.;.c.*.{.1X1               ",
"              B tX_ _ b.*.z.^.U h.O.b.O.z.*.'.1X1               ",
"              B tX( _ A.*.c.(.T h.O.M.3.S.&.].3X1               ",
"              B tX#...A.#.z.(.T h.O.oXoXs.&.].3X1               ",
"              m sXG.G.M.*.z.E.T h.O.M.n.I.;.].3X1               ",
"              C aX*.*.A.*.A.!.T %X&.b.;.S.;. X9X1               ",
"              a $Xw.^ i.q.u.8.S b q.i.9.i.q.t.~ =               ",
"              $ u d d g d g i 9 e d g t h d h 8                 ",
"                                                                ",
"                                                                ",
"                                  O                             ",
"                                                                ",
"                                                                ",
"                                                                "
};
