/* XPM */
static char *Door1[] = {
/* columns rows colors chars-per-pixel */
"32 32 105 2 ",
"   c #201C1A",
".  c #21201E",
"X  c #2E2D2C",
"o  c #302A25",
"O  c #392F25",
"+  c #322F2D",
"@  c #34302C",
"#  c #3C352C",
"$  c #3C3731",
"%  c #3E3931",
"&  c #403C35",
"*  c #403D3A",
"=  c #544624",
"-  c #5A4526",
";  c #64512E",
":  c #655336",
">  c #534D45",
",  c #524E48",
"<  c #54504A",
"1  c #5B544C",
"2  c #665741",
"3  c #685843",
"4  c #65594B",
"5  c #685949",
"6  c #7C6142",
"7  c #7C654A",
"8  c #796650",
"9  c #BC6D01",
"0  c #B76E0B",
"q  c #B86F0B",
"w  c #BD7007",
"e  c #BD7109",
"r  c #A76711",
"t  c #A76813",
"y  c #AE6D12",
"u  c #A3671A",
"i  c #A2691C",
"p  c #B67214",
"a  c #B97414",
"s  c #BF7816",
"d  c #B3741C",
"f  c #815724",
"g  c #855B26",
"h  c #986521",
"j  c #9C6924",
"k  c #94682F",
"l  c #9F7130",
"z  c #9B733E",
"x  c #A46F25",
"c  c #A67024",
"v  c #A97225",
"b  c #A6732C",
"n  c #A8742A",
"m  c #BC7C25",
"M  c #B47B2B",
"N  c #A37330",
"B  c #A87B3C",
"V  c #C07710",
"C  c #C07813",
"Z  c #967242",
"A  c #9C7441",
"S  c #9D7946",
"D  c #836D53",
"F  c #8C7353",
"G  c #8B795E",
"H  c #917655",
"J  c #9C7F5A",
"K  c #BF8027",
"L  c #BA802E",
"P  c #B98132",
"I  c #B9853F",
"U  c #C18026",
"Y  c #C98120",
"T  c #C3893E",
"R  c #AE8246",
"E  c #AC844C",
"W  c #B2874C",
"Q  c #A48154",
"!  c #AB8452",
"~  c #A6865A",
"^  c #B18A54",
"/  c #9D8562",
"(  c #9F8865",
")  c #908473",
"_  c #918879",
"`  c #AD8C60",
"'  c #C68C40",
"]  c #C88F43",
"[  c #CC9447",
"{  c #CD9649",
"}  c #CF984A",
"|  c #D29C4D",
" . c #D39E53",
".. c #D6A253",
"X. c #D8A456",
"o. c #D7A359",
"O. c #D9A65A",
"+. c #DBA95D",
"@. c #DDAD64",
"#. c #DFB067",
"$. c #DFB169",
"%. c #E1B36D",
"&. c #E2B671",
"*. c #E3B876",
"=. c #E5BB7A",
/* pixels */
"..@.%.%.%.%...%.=.*.X.O.%.%.&.&...$.=.=.+.X.%.%.%.%.......X.| T ",
"@.@.%.%.%.+.%.*.&.@.@.#.%.&.=.=.$.#.$.=.$.@.%.%.#.@.@.+...@.X.{ ",
"%.%.%.%.+.O.%.*.%.X.$.%.%.*.*.*.=.@.O.*.&.%.$.%.@...$.#.O.&.@...",
"%.%.%.=.+.O.%.%.%.%.%.> Q Q ` 1 G ~ / D o *.%.+...X.#.&.*.=.@...",
"O.+.%.=.*.%.%.+.+.O ~ R d l P 5 A p b m ^ 7 =.$.@.#.%.%.*.@.O...",
"O.%.*.=.=.*.%.+.o I e b p z E 4 z a n a x L 7 $.%.%.@.%.&.O.....",
"%.*.=.=.&.%.%.=.5 Y w n p l L 5 z a n a b l ( O.+.%.X.+.%.%.@...",
"O.%.&.%.%.%.=.&._ a e b p i K 5 z a n a n p ^ X %.%.@.%.%.%.@.| ",
"O.%.%.%.#.$.=.%.) q e b p n K 5 z a n a b 0 W 1 %.%.%.%.@.%.O.X.",
"=.=.*.%.+.+.$.X / w e n a c K 5 B a b p n p B 8 %.=.&.@.....+.%.",
"=.%.%.%.$.$.$.1 E 9 e b p c U 5 A a n a c a l ~ %.%.+.+.%.%.%.%.",
"%.%.%.%.$.$.@.> E w e n p n U 5 z a b p b e N Q %.%.+.@.%.%.%.@.",
"X.X.O.=.&.%...> E 9 e n a c U 5 z a n a n a b Q O.%.=.*.%.%.O...",
"%.%.%.=.%.%.%.< E 9 e n p v U 5 z C n a n p N Q &.*.%.+...%.%.%.",
"+.%.%.%.%.%.*.< E 9 e n s j M 5 S r n a c a b Q &.*.%.@.+.#.%.%.",
"X.%.%.%.%.&.=.< E w e n y ; : 1 2 ; g s b p b Q %.%.%.%.%.%.%.+.",
"=.=.*.X.$.=.%., E 9 e n y - : 4 2 = f s c a b Q ..X.$.#...%.O.] ",
"*.&.&.+.$.*.%., W 9 e b a l M 5 S r n a b a N Q @.@.$.$.#.$.O.{ ",
"$.$.$.&.&.$.$., E 9 e n p v U 5 z s n a b a N Q &.&.$.$.=.&.@.X.",
"X.@.&.=.*.$..., E 9 e b a c m 5 z s n a v p l Q O.$.X.@.=.=.*.$.",
"@.%.*.&.@.+.@., E 9 e b p v m 5 z a b d b s N Q #.&.@.$.&.&.$.O.",
"%.&.*.%.+.+.&., ! e a b p x U 5 z a z z A p b Q $.$.$.$.$.#.+.X.",
"%.%.$.%.&.&.=., ! x b N p v m 5 z s b d b a N Q #...&.=.$...@.$.",
"+.#.$.+.$.=.=., E q a b a v m 5 z a n a b p N ~ +.$.$.&.$.@.$.&.",
"O.@.%.X.%.*.*.* H u i z j z k 1 6 j A h A j Z F +.$.@.$.%.%.#.@.",
"%.%.%.%.%.%.%.%.$ # # $ # # $ . @ # $ # $ # %   $.$...@.=.&. .I ",
"&.@.+.%.%.@.X.&.*.%.O.@.#.$.&.%.%.%.%.$.$.$.=.+.@.$.*.&.&.&.+.| ",
"#.+.+.$.%.$.+.&.&.@.+.@.&.@.#.%.@.@.@.&.$.$.*.@.+.$.*.&.$.@.+...",
"..@.&.$.=.=.%.%.@...%.&.=.O.@.%.....O.=.@...$.$.%.$.$.$.%.......",
"$.%.$.X.$.$...$.%.#.%.%.%.@.$.%.%.O.O.&.$.$.&.&.@.{ O.@.%.%...] ",
"O.@.@...@.%.+.@.#.%.@.@.%.%.#.@.%.@.+.%.@.@.$.@.o.{  .+.%.#. .T ",
"] } X...@.%.%.X.O.&...O.%.$.+.X.%.&.%.%.O.O.&.O...O. .@.%...[ ' "
};
