/* XPM */
static char *floor[] = {
/* columns rows colors chars-per-pixel */
"32 32 183 2 ",
"   c #C48B42",
".  c #C58C42",
"X  c #C78D42",
"o  c #CA9145",
"O  c #C89046",
"+  c #CA9247",
"@  c #CC9448",
"#  c #CF984B",
"$  c #CF984C",
"%  c #D0994C",
"&  c #D19B4F",
"*  c #D29C4F",
"=  c #D29C50",
"-  c #D29D52",
";  c #D49F52",
":  c #D6A053",
">  c #D7A254",
",  c #D7A255",
"<  c #D7A355",
"1  c #D5A156",
"2  c #D7A356",
"3  c #D8A356",
"4  c #D8A455",
"5  c #D8A456",
"6  c #D8A457",
"7  c #D9A557",
"8  c #D6A359",
"9  c #D7A458",
"0  c #D7A55A",
"q  c #D8A458",
"w  c #D8A558",
"e  c #D9A558",
"r  c #D9A559",
"t  c #D9A658",
"y  c #D9A659",
"u  c #D9A759",
"i  c #D9A65A",
"p  c #D9A75A",
"a  c #D8A65B",
"s  c #D9A75B",
"d  c #DAA75A",
"f  c #DAA75B",
"g  c #D9A75C",
"h  c #D9A75D",
"j  c #DAA85B",
"k  c #DBA85B",
"l  c #DCA85B",
"z  c #DAA85C",
"x  c #DBA85C",
"c  c #DBA95C",
"v  c #DAA85D",
"b  c #DBA85D",
"n  c #DBA95D",
"m  c #DBAA5D",
"M  c #D9A85F",
"N  c #DBA95E",
"B  c #DAA95F",
"V  c #DBAA5E",
"C  c #DCA95D",
"Z  c #DCAA5D",
"A  c #DCAA5E",
"S  c #DCAA5F",
"D  c #DCAB5F",
"F  c #DBAA60",
"G  c #DCAA60",
"H  c #DCAB60",
"J  c #DDAB60",
"K  c #DCAB61",
"L  c #DDAB61",
"P  c #DCAB62",
"I  c #DDAC60",
"U  c #DCAC61",
"Y  c #DDAC61",
"T  c #DCAC62",
"R  c #DDAC62",
"E  c #DDAD62",
"W  c #DCAC63",
"Q  c #DDAC63",
"!  c #DDAD63",
"~  c #DEAD62",
"^  c #DEAD63",
"/  c #DEAE63",
"(  c #DDAD64",
")  c #DDAD65",
"_  c #DEAD64",
"`  c #DDAE64",
"'  c #DDAE65",
"]  c #DEAE64",
"[  c #DFAE64",
"{  c #DEAE65",
"}  c #DEAF65",
"|  c #DFAF65",
" . c #DEAE66",
".. c #DEAF66",
"X. c #DFAF66",
"o. c #DFAF67",
"O. c #DEB066",
"+. c #DFB066",
"@. c #DEB067",
"#. c #DFB067",
"$. c #DFB167",
"%. c #DFB068",
"&. c #DFB168",
"*. c #DFB069",
"=. c #DFB169",
"-. c #DFB269",
";. c #DFB26A",
":. c #E0B067",
">. c #E0B068",
",. c #E0B168",
"<. c #E0B169",
"1. c #E0B268",
"2. c #E0B269",
"3. c #E0B16A",
"4. c #E0B26A",
"5. c #E1B26A",
"6. c #E0B36A",
"7. c #E0B26B",
"8. c #E1B26B",
"9. c #E0B36B",
"0. c #E1B36B",
"q. c #E1B46B",
"w. c #E0B26C",
"e. c #E0B36C",
"r. c #E1B36C",
"t. c #E0B36D",
"y. c #E1B36D",
"u. c #E2B36C",
"i. c #E1B46C",
"p. c #E0B46D",
"a. c #E1B46D",
"s. c #E1B56D",
"d. c #E2B46C",
"f. c #E2B46D",
"g. c #E1B46E",
"h. c #E1B56E",
"j. c #E1B46F",
"k. c #E1B56F",
"l. c #E2B46E",
"z. c #E2B56E",
"x. c #E2B56F",
"c. c #E2B66F",
"v. c #E1B470",
"b. c #E1B570",
"n. c #E2B570",
"m. c #E2B571",
"M. c #E2B670",
"N. c #E3B670",
"B. c #E2B671",
"V. c #E3B671",
"C. c #E2B672",
"Z. c #E3B672",
"A. c #E2B772",
"S. c #E3B772",
"D. c #E3B673",
"F. c #E2B773",
"G. c #E3B773",
"H. c #E3B774",
"J. c #E3B775",
"K. c #E3B873",
"L. c #E3B874",
"P. c #E3B875",
"I. c #E3B876",
"U. c #E3B976",
"Y. c #E4B874",
"T. c #E4B875",
"R. c #E4B975",
"E. c #E4B876",
"W. c #E4B976",
"Q. c #E4B877",
"!. c #E4B977",
"~. c #E4BA77",
"^. c #E4B978",
"/. c #E4BA78",
"(. c #E5BA78",
"). c #E4BA79",
"_. c #E5BA79",
"`. c #E5BB79",
"'. c #E4BA7A",
"]. c #E5BA7A",
"[. c #E5BB7A",
"{. c #E5BB7B",
"}. c #E6BC7B",
/* pixels */
"4 Y f.f.q.:.l N.'.N.j Y q.q.N.N.Z >.`.R.A C l.u.l.5.t 4 4 4 % X ",
"Y >.q.f.Y Y :.R.K.+.Y +.q.K.R.R.l.*.>.R.*.Q u.u.*.J J C e P e % ",
"f.>.f.f.D Z f.R.f.m %.f.f.R.R.J.Q.) P Y.D.l.l.8.J t *.:.P l.P 4 ",
"f.q.N.`.Y Z f.f.f.;.f.f.f.f.) Z l.l.>.l.D.Y.l.C t t :.l.Y.Q.Q 4 ",
"Z ) v.`.K.f.>.Y ) f.N.%.Y ;.%.) >.l.D.Y.Q.Q.Y.*.:.:.>.N.Y.Q e 4 ",
"C *.N.`.}.K.z.Y +.N.L.%.m %.f.N.l.l.l.Q.Q.Q.Q.l.:.l.>.l.D.C e ; ",
"l.Y.`.`.Y.l.z.R.'.'.f.;.;.f.K.}.`.) P Y.Q J l.C Z >.t P l.>.P 4 ",
"Z o.N.v.l.N.R.Y.L.'.) ) f.L.}.}.Y.P e Z Q 8.Y.*.>.l.:.*.l.l.Q ; ",
"P *.l.l.+.;.L.K.K.L.P +.N.'.L.;.q.+.l j q.K.f.q.l.N.f.>.) +.Y j ",
"`.`.J.l.D D f.L.K.f.q.N.'.f.P m :.q.q.q.K.s.j +.f.`.f.Y y y Y >.",
"}.R.f.l.%.%.;.N.f.q.Y +.K.f.N.;.q.f.:.m %.f.+.q.f.f.P Y +.+.%.f.",
"l.%.) N.f.%.+.f.f.N.Y ) ;.N.'.L.+.:.q.D ;.f.q.+.) f.) >.f.f.+.) ",
"y y F '.N.+.m %.K.'.N.;.f.}.'.N.j +.f.>.q.s.q.j P ;.K.K.;.;.+.4 ",
">.%.f.'.N.f.%.>.N.}.}.;.m ;.K.f.>.>.>.m $.$.j +.s.~.s.+.m ;.;.+.",
") >.f.L.f.N.L.%.%.L.}.;.Y ;.%.+.l.N.f.Y $.1.~ ;.s.~.s.+.P ;.f.s.",
"m +.f.f.;.L.'.P P ;.q.f.f.;.Y m %.L.'.f.q.q.q.;.;.;.q.q.;.;.+.+.",
"L.'.N.m ;.L.s.;.;.f.;.K.N.m Y ;.f.L.}.'.N.f.%.D j j %.+.m %.a @ ",
"L.L.f.P ;.K.f.f.%.Y ;.N.N.+.%.K.f.N.L.N.+.) ;.%.) Y %.%.%.;.h $ ",
"%.l.f.N.K.q.%.f.+.m %.;.%.N.L.L.;.;.;.;.Y m q.K.N.f.%.f.'.N.) y ",
"y ) f.}.N.+.j %.N.L.f.) m ;.N.q.m %.'.N.f.>.q.D D %.m ) '.`.N.%.",
") ;.L.N.+.P ) ;.f.K.L.f.+.f.+.P ) %.s.f.+.Y K.%.%.;.' %.N.J.%.m ",
"f.L.L.f.Y P f.f.;.f.N.b.;.N.) m ;.;.;.+.P Y L.s.;.%.;.b.%.%.F y ",
";.f.f.f.f.K.'.f.f.;.m P ;.}.L.;.f.f.+.0 +.f.;.;.%.m N.L.%.m F ;.",
"F %.;.F ;.~.'.) ) ;.+.+.f.N.N.;.;.K.K.+.;.f.f.P P ) ;.b.%.) %.f.",
"m ) >.Z f.'.L.Y Y q.f.q.+.%.f.b.) b.L.f.+.+.N.' P ;.' %.b.b.' F ",
"f.f.q.>.f.f.%.l.;.f.q.Y m %.L.L.m +.;.N.F F '.;.;.;.m ' L.;.8 O ",
"f.) P q.l.o.m N.K.%.P P %.;.N.f.+.%.;.;.+.%.L.' D q.f.N.N.;.F & ",
") Y D q.v.;.F N.N.) D %.N.+.%.;.+.) +.K.%.%.K.) Y q.L.K.;.' m 1 ",
"y Y f.>.J.J.l.l.+.j %.L.L.m +.;.j 2 F L.' m ;.;.q.%.;.;.;.h 1 1 ",
"%.q.%.m %.%.m ) ;.%.;.f.N.%.%.;.+.m m f.;.%.f.f.P & 0 P f.%.1 + ",
"m F Y y ) %.F P +.;.+.+.;.;.+.+.;.%.F %.+.) f.+.0 $ : F f.) - . ",
"+ - 2 4 ) f.>.j D %.p D ;.f.P m ;.;.N.;.m m %.m 2 2 2 P %.y # . "
};
