/* XPM */
static char *player1[] = {
/* columns rows colors chars-per-pixel */
"32 32 122 2 ",
"   c #000D2A",
".  c #00112E",
"X  c #011534",
"o  c #001738",
"O  c #021B3A",
"+  c #4A2501",
"@  c #4D2906",
"#  c #4F2B09",
"$  c #502D0B",
"%  c #53300F",
"&  c #563413",
"*  c #583717",
"=  c #593817",
"-  c #5B3B1C",
";  c #634427",
":  c #63462A",
">  c #67492C",
",  c #684B2E",
"<  c #72573C",
"1  c #031C40",
"2  c #062043",
"3  c #082246",
"4  c #0C2549",
"5  c #162C47",
"6  c #1E324D",
"7  c #303D4F",
"8  c #293A52",
"9  c #4C3645",
"0  c #4E3848",
"q  c #354255",
"w  c #384556",
"e  c #344459",
"r  c #284062",
"t  c #2D4568",
"y  c #364B66",
"u  c #3A4E69",
"i  c #765C42",
"p  c #785E45",
"a  c #4A586A",
"s  c #515C6B",
"d  c #56606F",
"f  c #796975",
"g  c #69727E",
"h  c #836B55",
"j  c #88735E",
"k  c #897766",
"l  c #8A7867",
"z  c #8C7B6B",
"x  c #927E6B",
"c  c #8F8072",
"v  c #978A7E",
"b  c #486081",
"n  c #5B708D",
"m  c #6C7581",
"M  c #62748C",
"N  c #687688",
"B  c #707984",
"V  c #79818C",
"C  c #7E8792",
"Z  c #8E8089",
"A  c #9A8E82",
"S  c #9D9186",
"D  c #9F958A",
"F  c #8E959E",
"G  c #A49484",
"H  c #A0968C",
"J  c #A2988E",
"K  c #AD9F91",
"L  c #AAA39C",
"P  c #B3A69A",
"I  c #B4A89C",
"U  c #939AA3",
"Y  c #989EA6",
"T  c #A69BA2",
"R  c #AEA7A1",
"E  c #AEA8A2",
"W  c #A2A7AE",
"Q  c #A4A9AF",
"!  c #B3AFAA",
"~  c #B5B1AD",
"^  c #BFB6AD",
"/  c #A6AAB1",
"(  c #B9B4B3",
")  c #BAB8B5",
"_  c #B1B5BA",
"`  c #B6BABE",
"'  c #BEBCBB",
"]  c #C4BEB7",
"[  c #C0BFBE",
"{  c #F4AAAA",
"}  c #F1BBBB",
"|  c #CBC4BD",
" . c #9CB0C7",
".. c #9BB0CD",
"X. c #BDC1C6",
"o. c #B7CCE6",
"O. c #C2C3C3",
"+. c #CDC7C1",
"@. c #CDC8C4",
"#. c #C5C7C9",
"$. c #CECCCA",
"%. c #D3CFCC",
"&. c #D4D0CB",
"*. c #CBCDD0",
"=. c #D3D3D3",
"-. c #DAD7D3",
";. c #DCD8D5",
":. c #DCDBDB",
">. c #EFC3C3",
",. c #E0DEDC",
"<. c #F4D0D0",
"1. c #F2D8D8",
"2. c #DEDFE0",
"3. c #DFE0E1",
"4. c #E3E3E3",
"5. c #E9E9E9",
"6. c #F0F0EF",
"7. c #EBEFF0",
"8. c #EEF0F1",
"9. c #F3F3F2",
"0. c #F3F5F8",
"q. c None",
/* pixels */
"q.q.q.q.q.q.q.q.q.q.q.q.q.q.q.q.q.q.q.q.q.q.q.q.q.q.q.q.q.q.q.q.",
"q.q.q.q.q.q.q.q.q.q.q.q.q.q.q.q.q.q.q.q.q.q.q.q.q.q.q.q.q.q.q.q.",
"q.q.q.q.q.q.q.q.q.q.q.q.q.q.q.q.q.q.q.q.q.q.q.q.q.q.q.q.q.q.q.q.",
"q.q.q.q.q.q.q.q.q.q.q.q.q.q.q.q.q.q.q.q.q.q.q.q.q.q.q.q.q.q.q.q.",
"q.q.q.q.q.q.q.q.q.q.q.q.q.q.q.q.q.q.q.q.q.q.q.q.q.q.q.q.q.q.q.q.",
"q.q.q.q.q.q.q.q.q.q.q.q.q.q.q.q.q.q.q.q.q.q.q.q.q.q.q.q.q.q.q.q.",
"q.q.q.q.q.q.q.q.q.q.q.q.q.q.q.q.q.q.q.q.q.q.q.q.q.q.q.q.q.q.q.q.",
"q.q.q.q.q.q.q.q.q.q.q.q.q.q.q.q.q.q.q.q.q.q.q.q.q.q.q.q.q.q.q.q.",
"q.q.q.q.q.q.q.q.q.q.@ @ @ @ @ @ @ @ @ @ @ @ @ q.q.q.q.q.q.q.q.q.",
"q.q.q.q.q.q.q.q.@ + z J D D D D D D D D D D z + @ q.q.q.q.q.q.q.",
"q.q.q.q.q.q.q.+ z A ( O.-.3.3.:.2.2.2.2.2.3.@.A z + q.q.q.q.q.q.",
"q.q.q.q.q.q.# l ) #.O.=.4.5.5.5.5.5.5.5.5.5.5.:.$.z $ q.q.q.q.q.",
"q.q.q.q.q.q.+ L #.| *.4.5.5.5.5.5.5.5.4.5.5.5.5.4.L @ q.q.q.q.q.",
"q.q.q.q.q.q.k ( O.*.4.5.5.5.5.5.5.5.5.5.5.5.5.5.4.@.z q.q.q.q.q.",
"q.q.q.q.q.$ R #.X.:.5.5.5.6.6.5.5.5.5.4.5.9.9.5.5.5.] $ q.q.q.q.",
"q.q.q.q.q.$ L O.| :.5.8.Q g g _ 5.5.5.5.#.m g F 8.5.@.$ q.q.q.q.",
"q.q.q.q.q.# L #.O.:.5./ 8 y M N _ 5.5.#.a 6 M M U 5.| $ q.q.q.q.",
"q.q.q.q.q.$ L O.O.:.9.s X b o.M g 6.6.F   t ....7 6.@.$ q.q.q.q.",
"q.q.q.q.q.$ L #.#.:.9.d O 1 b u B 6.6.U X 1 r n w 6.@.$ q.q.q.q.",
"q.q.q.q.q.$ R H c %.9.s X 4 1 X B 9.5.F . 4 4 o q 5.+.- j q.q.q.",
"q.q.q.q.q.$ l j h G ;.F 6 O O 8 W 6.7.` e O O 5 V 6.| , ,.h q.q.",
"q.q.q.q.q.$ < %.9.i P 0.Z 9 9 T *.O.*.X.( 9 0 f 6.5.+.> 4.,.* q.",
"q.q.q.q.q.$ @.5.5.p I 7.>.{ { <.U m B C 1.{ { } 5.5.] , 4.I & q.",
"q.q.q.q.q.$ @.7.9.p I 5.5.4.5.5.9.Y F 5.5.5.5.5.4.:.R ; P $ q.q.",
"q.q.q.q.q.$ P ] ] h ^ 5.5.5.5.5.5.5.5.5.5.5.5.5.:.' v $ @ q.q.q.",
"q.q.q.q.q.q.@ ; : L :.5.5.5.5.5.5.5.5.5.5.5.4.:.O.L $ $ q.q.q.q.",
"q.q.q.q.q.q.$ A [ O.O.-.2.2.4.,.:.4.,.4.:.4.-.O.[ S $ q.q.q.q.q.",
"q.q.q.q.q.q.q.@ A E ' #.O.O.O.O.O.O.O.O.O.O.' ! S $ q.q.q.q.q.q.",
"q.q.q.q.q.q.q.q.% $ v ~ ! ! ~ ~ ! ! ! ! ! ~ S $ % q.q.q.q.q.q.q.",
"q.q.q.q.q.q.q.q.q.q.& $ - ; : = $ & = : : - % q.q.q.q.q.q.q.q.q.",
"q.q.q.q.q.q.q.q.q.q.q.+ G ;.;.x q.q.j ;.-.K @ q.q.q.q.q.q.q.q.q.",
"q.q.q.q.q.q.q.q.q.q.q.q.= = = * q.q.q.= * * q.q.q.q.q.q.q.q.q.q."
};
