/* XPM */
static char *player2[] = {
/* columns rows colors chars-per-pixel */
"32 32 166 2 ",
"   c #D6A151",
".  c #DCAB61",
"X  c #E1B46D",
"o  c #E1B36C",
"O  c #E2B46E",
"+  c #DFB066",
"@  c #D9A455",
"#  c #E2B671",
"$  c #E5BA7A",
"%  c #E4B976",
"&  c #D9A557",
"*  c #DBA95D",
"=  c #E1B46E",
"-  c #DFB168",
";  c #E2B571",
":  c #E3B673",
">  c #D8A353",
",  c #E0B36C",
"<  c #E6BD7D",
"1  c #E4B977",
"2  c #DAA75A",
"3  c #D9A659",
"4  c #E0B26A",
"5  c #E2B670",
"6  c #D8A457",
"7  c #D7A253",
"8  c #D7A355",
"9  c #D8A354",
"0  c #CF984A",
"q  c #C3893F",
"w  c #DDAC61",
"e  c #DFB067",
"r  c #DDAD63",
"t  c #DDAC60",
"y  c #DEAE64",
"u  c #E4B978",
"i  c #E3B773",
"p  c #DDAD62",
"a  c #DDAC62",
"s  c #DEAF66",
"d  c #E2B672",
"f  c #E4BA78",
"g  c #E1B36D",
"h  c #DEAE65",
"j  c #DEAF67",
"k  c #E5BA79",
"l  c #DBAA5F",
"z  c #DEAD63",
"x  c #DAA85B",
"c  c #D7A458",
"v  c #E1B36B",
"b  c #E0B26B",
"n  c #DBA85C",
"m  c #D9A556",
"M  c #E0B26C",
"N  c #E3B876",
"B  c #E5BC7C",
"V  c #E0B36B",
"C  c #D6A051",
"Z  c #DAA759",
"A  c #E2B570",
"S  c #D7A353",
"D  c #DCAB5F",
"F  c #DAA659",
"G  c #E1B56F",
"H  c #E1B56E",
"J  c #E2B56F",
"K  c #DCAB60",
"L  c #D8A455",
"P  c #DFB068",
"I  c #E2B673",
"U  c #E3B875",
"Y  c #D7A354",
"T  c #DDAD65",
"R  c #D5A050",
"E  c #E5BB7A",
"W  c #E0B36D",
"Q  c #DBAA5E",
"!  c #DCAC61",
"~  c #E3B774",
"^  c #DAA75B",
"/  c #E4BA79",
"(  c #DFB169",
")  c #DEAF65",
"_  c #DCAB62",
"`  c #D6A253",
"'  c #D9A658",
"]  c #E4BA7A",
"[  c #DDAC63",
"{  c #E0B169",
"}  c #D6A153",
"|  c #E5BB7B",
" . c #E1B46F",
".. c #E6BE7F",
"X. c #D9A75A",
"o. c #DBA95E",
"O. c #D8A355",
"+. c #DAA95D",
"@. c #D6A152",
"#. c #E1B570",
"$. c #E5BC7B",
"%. c #E3B874",
"&. c #DCAA5F",
"*. c #DAA95E",
"=. c #E0B16A",
"-. c #E2B56E",
";. c #DCAC62",
":. c #E1B571",
">. c #DDAD64",
",. c #D9A558",
"<. c #D9A65A",
"1. c #512E0C",
"2. c #E4BB7A",
"3. c #D6A252",
"4. c gray76",
"5. c #E0B36E",
"6. c gray91",
"7. c #DEAE66",
"8. c #D8A454",
"9. c #DAA85C",
"0. c #E2B772",
"q. c #DFB16A",
"w. c #E2B774",
"e. c #07182F",
"r. c #D7A252",
"t. c #E1B46C",
"y. c #D6A359",
"u. c #C78D41",
"i. c #DFB16B",
"p. c #E2B773",
"a. c #0B2447",
"s. c #C7DBF6",
"d. c #D9A65B",
"f. c #CE9648",
"g. c #DEB068",
"h. c #D9A75B",
"j. c #DBAA5D",
"k. c #D8A456",
"l. c #EF8F8F",
"z. c #DDAE66",
"x. c #D9A75F",
"c. c #D39E54",
"v. c #C4893D",
"b. c #D8A557",
"n. c #DBAA60",
"m. c #D29C4D",
"M. c #DEB067",
"N. c #DDAE64",
"B. c #DFB069",
"V. c #DBAB63",
"C. c #CC9549",
"Z. c #D6A356",
"A. c #D4A056",
"S. c #C88F43",
"D. c #D9A75E",
"F. c #D8A55A",
"G. c #CC9447",
"H. c #D49E4F",
"J. c #D29D52",
"K. c #C3893E",
"L. c #C78C40",
"P. c #D0994C",
"I. c #DAA75C",
"U. c #CE9649",
"Y. c #C38A40",
"T. c white",
/* pixels */
"  . X o O + @ # $ % & * = - ; : > , < 1 2 3 = 4 o 5 6 7 8 9 0 q ",
"w e o o r t y u i p a s o d 1 f g h j k e r o X - l z x 7 p c 0 ",
"X v b 5 n 2 5 1 g m b = M f f N B a 3 N d = V X r C b e Z A r S ",
"X o = < D F = G X V V o H J K L 4 g , P I U 4 2 Y 8 P A u < T R ",
"x r = E I W g Q ! , ~ P ^ V e y b X # N / u % ( ) h 4 ; 1 _ 3 ` ",
"' h # ] B 1 X n [ 5 1 P & b X A G { W B N N E = , = s g I 3 L } ",
"H % | B # V o E B $  ., g 4 d B ..[ X.| o.3 X & x X O.+.X X ! @.",
"X.j #. .g G / #.I E o.K W U E $.%.&.L *.a =.E =.P o h e X -.. R ",
"* e = b e b / g A f * ;.d / U #.o w 2 3 ( i :.o X A = { >.e K ,.",
"| | 1 X <.' b N N b X 1.1.1.1.1.1.1.1.1.1.1.1.h A 2.# a 3.@.l X ",
"< % J V P ( o A X 1.1.4.4.4.4.4.4.4.4.4.4.4.4.1.1.G x * - e 4 = ",
"5.j h ; = b r 4 1.4.4.4.4.6.6.6.6.6.6.6.6.6.6.4.4.1.;.7.G = P r ",
"8.S 9.B 0.h Y 1.4.4.4.4.6.6.6.6.6.6.6.6.6.6.6.6.6.4.1.1 b X l   ",
"X b , B # , ( 1.4.4.4.6.6.6.6.6.6.6.6.6.6.6.6.6.6.4.1.;.Y 4 b - ",
"p P  .U X X 1.4.4.4.6.6.6.6.6.6.6.6.6.6.6.6.6.6.6.6.4.1.o.( o = ",
"L r X b , # 1.4.4.4.6.6.6.6.6.6.6.6.6.6.6.6.6.6.6.6.6.1.o , q.s ",
"f B w.Y 5.f 1.4.4.4.6.6.6.e.e.e.6.6.6.6.6.e.e.e.6.6.6.1.r.t.y.u.",
"%.U A Q i.p.1.4.4.4.6.6.e.a.s.s.e.6.6.6.e.a.s.s.e.6.6.1.7.X d.f.",
"4 4 , A o b 1.4.4.4.6.6.e.a.a.s.e.6.6.6.e.a.a.s.e.6.6.1.E A r L ",
"Y a A | U e 1.4.4.4.6.6.e.a.a.a.e.6.6.6.e.a.a.a.e.6.6.1.1.E ~ 4 ",
"w , %.d >.Q 1.4.1.1.6.6.e.a.a.a.e.6.6.6.e.a.a.a.e.6.6.1.6.1.g.h.",
"X %.U o j.o.1.1.6.6.1.6.6.e.e.e.6.6.6.6.6.e.e.e.6.6.6.1.6.6.1.k.",
"= X , = =  .1.6.6.6.1.6.6.l.l.l.6.e.6.e.6.l.l.l.6.6.6.1.6.6.1.= ",
"2 s , 3  ./ 1.6.6.6.1.6.6.6.6.6.6.6.e.6.6.6.6.6.6.6.4.1.6.1.q.-.",
"' h 4 & 5./ 1.6.6.6.1.6.6.6.6.6.6.6.6.6.6.6.6.6.6.4.4.1.1.= z.x.",
"J g o o , , b 1.1.1.4.6.6.6.6.6.6.6.6.6.6.6.6.6.4.4.1.1.| J c.v.",
"# . x o , s b.1.4.4.4.4.6.6.6.6.6.6.6.6.6.6.6.4.4.4.1.:.= # n.m.",
"h l o.,  .=.2 ; 1.4.4.4.4.4.4.4.4.4.4.4.4.4.4.4.4.1.U d q.M.+.` ",
"  ! J b 1 u o g N.1.1.4.4.4.4.4.4.4.4.4.4.4.4.1.1.o b b 4 Y @.` ",
"4 g b b.B.4 Y q.g e , 1.1.1.1.1.1.1.1.1.1.1.1.J V.C.Z.;.= X A.S.",
"D._ a @.N.4 9.K j g [ h 1.6.6.6.1.>.1.6.6.6.1.s F.G.H.l 5.P J.K.",
"L.P.L ` >.= G ,.^ = 8 I., 1.1.1.b = = 1.1.1.= 3 3.& ` o.W L U.Y."
};
