/* XPM */
static char *player1[] = {
/* columns rows colors chars-per-pixel */
"31 31 8 1 ",
"  c #07182F",
". c #512E0C",
"X c #0B2447",
"o c #EF8F8F",
"O c gray76",
"+ c #C7DBF6",
"@ c gray91",
"# c None",
/* pixels */
"###############################",
"###############################",
"###############################",
"###############################",
"###############################",
"###############################",
"###############################",
"###############################",
"##########............#########",
"########..OOOOOOOOOOOO..#######",
"#######.OOOO@@@@@@@@@@OO.######",
"######.OOOO@@@@@@@@@@@@@O.#####",
"######.OOO@@@@@@@@@@@@@@O.#####",
"#####.OOO@@@@@@@@@@@@@@@@O.####",
"#####.OOO@@@@@@@@@@@@@@@@@.####",
"#####.OOO@@@   @@@@@   @@@.####",
"#####.OOO@@ X++ @@@ X++ @@.####",
"#####.OOO@@ XX+ @@@ XX+ @@.####",
"#####.OOO@@ XXX @@@ XXX @@..###",
"#####.O..@@ XXX @@@ XXX @@.@.##",
"#####..@@.@@   @@@@@   @@@.@@.#",
"#####.@@@.@@ooo@ @ @ooo@@@.@@.#",
"#####.@@@.@@@@@@@ @@@@@@@O.@.##",
"#####.@@@.@@@@@@@@@@@@@@OO..###",
"######...O@@@@@@@@@@@@@OO..####",
"######.OOOO@@@@@@@@@@@OOO.#####",
"#######.OOOOOOOOOOOOOOOO.######",
"########..OOOOOOOOOOOO..#######",
"##########............#########",
"###########.@@@.#.@@@.#########",
"############...###...##########"
};
