/* XPM */
static char *player2_32[] = {
/* columns rows colors chars-per-pixel */
"32 32 165 2 ",
"   c #C3893F",
".  c #CF984A",
"X  c #D8A354",
"o  c #D7A355",
"O  c #D7A253",
"+  c #D8A457",
"@  c #E2B670",
"#  c #E1B36C",
"$  c #E0B26A",
"%  c #E1B46E",
"&  c #D9A659",
"*  c #DAA75A",
"=  c #E4B977",
"-  c #E6BD7D",
";  c #E0B36C",
":  c #D8A353",
">  c #E3B673",
",  c #E2B571",
"<  c #DFB168",
"1  c #DBA95D",
"2  c #D9A557",
"3  c #E4B976",
"4  c #E5BA7A",
"5  c #E2B671",
"6  c #D9A455",
"7  c #DFB066",
"8  c #E2B46E",
"9  c #E1B46D",
"0  c #DCAB61",
"q  c #D6A151",
"w  c #D7A458",
"e  c #DDAD62",
"r  c #DAA85B",
"t  c #DEAD63",
"y  c #DBAA5F",
"u  c #DDAD63",
"i  c #DFB067",
"p  c #E5BA79",
"a  c #DEAF67",
"s  c #DEAE65",
"d  c #E1B36D",
"f  c #E4BA78",
"g  c #E2B672",
"h  c #DEAF66",
"j  c #DDAC62",
"k  c #E3B773",
"l  c #E4B978",
"z  c #DEAE64",
"x  c #DDAC60",
"c  c #DDAC61",
"v  c #D7A353",
"b  c #E2B570",
"n  c #DAA759",
"m  c #E0B26B",
"M  c #D6A051",
"N  c #E0B36B",
"B  c #E3B876",
"V  c #E5BC7C",
"C  c #E0B26C",
"Z  c #D9A556",
"A  c #DBA85C",
"S  c #E1B36B",
"D  c #D5A050",
"F  c #DDAD65",
"G  c #DFB068",
"H  c #D7A354",
"J  c #E3B875",
"K  c #E2B673",
"L  c #D8A455",
"P  c #DCAB60",
"I  c #E2B56F",
"U  c #E1B56E",
"Y  c #E1B56F",
"T  c #DAA659",
"R  c #DCAB5F",
"E  c #D6A253",
"W  c #DCAB62",
"Q  c #DEAF65",
"!  c #DFB169",
"~  c #E4BA79",
"^  c #DAA75B",
"/  c #E3B774",
"(  c #DCAC61",
")  c #DBAA5E",
"_  c #E0B36D",
"`  c #E5BB7A",
"'  c #D6A153",
"]  c #E0B169",
"[  c #DDAC63",
"{  c #E4BA7A",
"}  c #D9A658",
"|  c #D6A152",
" . c #DAA95D",
".. c #D8A355",
"X. c #DBA95E",
"o. c #E5BB7B",
"O. c #D9A75A",
"+. c #E6BE7F",
"@. c #E1B46F",
"#. c #E2B56E",
"$. c #E0B16A",
"%. c #DAA95E",
"&. c #DCAA5F",
"*. c #E3B874",
"=. c #E5BC7B",
"-. c #E1B570",
";. c #D9A558",
":. c #DDAD64",
">. c #E1B571",
",. c #DCAC62",
"<. c #D6A252",
"1. c #E4BB7A",
"2. c #512E0C",
"3. c #D9A65A",
"4. c gray76",
"5. c #DEAE66",
"6. c gray91",
"7. c #E0B36E",
"8. c #E2B772",
"9. c #DAA85C",
"0. c #D8A454",
"q. c #DFB16A",
"w. c #C78D41",
"e. c #D6A359",
"r. c #E1B46C",
"t. c #D7A252",
"y. c #07182F",
"u. c #E2B774",
"i. c #CE9648",
"p. c #D9A65B",
"a. c #C7DBF6",
"s. c #0B2447",
"d. c #E2B773",
"f. c #DFB16B",
"g. c #D9A75B",
"h. c #DEB068",
"j. c #D8A456",
"k. c #DBAA5D",
"l. c #EF8F8F",
"z. c #D9A75F",
"x. c #DDAE66",
"c. c #C4893D",
"v. c #D39E54",
"b. c #D29C4D",
"n. c #DBAA60",
"m. c #D8A557",
"M. c #DEB067",
"N. c #DDAE64",
"B. c #C88F43",
"V. c #D4A056",
"C. c #D6A356",
"Z. c #CC9549",
"A. c #DBAB63",
"S. c #DFB069",
"D. c #C3893E",
"F. c #D29D52",
"G. c #D49E4F",
"H. c #CC9447",
"J. c #D8A55A",
"K. c #D9A75E",
"L. c #C38A40",
"P. c #CE9649",
"I. c #DAA75C",
"U. c #D0994C",
"Y. c #C78C40",
/* pixels */
"  . X o O + @ # $ % & * = - ; : > , < % 1 2 3 4 5 6 7 8 # 9 0 q ",
". w e O r t y < 9 # u i p a s d f = g # h j e k l z x u # # i c ",
"v u b n i m M u 9 N % g B & j V B f f C % m Z d = @ * A @ m S 9 ",
"D F - l b G o H * $ J K G ; d $ L P I U # N N 9 Y % T R - % # 9 ",
"E & W = , $ s Q ! 3 l ~ B 5 9 m z i N ^ G / ; ( ) d _ K ` % u r ",
"' L & K d h % ; % ` B B V _ ] Y b 9 m 2 G = @ [ A 9 = V { 5 s } ",
"| ( 9 9  ...9 r 2 9 & X.o.O.[ +.V g $ d ; @.4 V ` # N 5 V o.3 U ",
"D 0 #.9 i s # G $.` $.j %.L &.*.=.` J _ P X.` K -.~ Y d @.-.a O.",
";.P i :.] % b 9 # >.k ! & * c # -.J ~ g ,.1 f b d ~ m i m % i 1 ",
"9 y | <.j 5 1.b s 2.2.2.2.2.2.2.2.2.2.2.2.9 m B B m } 3.9 = o.o.",
"% $ i < 1 r Y 2.2.4.4.4.4.4.4.4.4.4.4.4.4.2.2.9 b # ! G N I 3 - ",
"u G % Y 5.,.2.4.4.6.6.6.6.6.6.6.6.6.6.4.4.4.4.2.$ u m % , s a 7.",
"q y 9 m = 2.4.6.6.6.6.6.6.6.6.6.6.6.6.6.4.4.4.4.2.H s 8.V 9.v 0.",
"< m $ H ,.2.4.6.6.6.6.6.6.6.6.6.6.6.6.6.6.4.4.4.2.! ; 5 V ; m 9 ",
"% # ! X.2.4.6.6.6.6.6.6.6.6.6.6.6.6.6.6.6.6.4.4.4.2.9 9 J @.G e ",
"h q.; # 2.6.6.6.6.6.6.6.6.6.6.6.6.6.6.6.6.6.4.4.4.2.5 ; m 9 u L ",
"w.e.r.t.2.6.6.6.y.y.y.6.6.6.6.6.y.y.y.6.6.6.4.4.4.2.f 7.H u.V f ",
"i.p.9 5.2.6.6.y.a.a.s.y.6.6.6.y.a.a.s.y.6.6.4.4.4.2.d.f.) b J *.",
"L u b ` 2.6.6.y.a.s.s.y.6.6.6.y.a.s.s.y.6.6.4.4.4.2.m # b ; $ $ ",
"$ / ` 2.2.6.6.y.s.s.s.y.6.6.6.y.s.s.s.y.6.6.4.4.4.2.i J o.b j H ",
"g.h.2.6.2.6.6.y.s.s.s.y.6.6.6.y.s.s.s.y.6.6.2.2.4.2.) :.g *.; c ",
"j.2.6.6.2.6.6.6.y.y.y.6.6.6.6.6.y.y.y.6.6.2.6.6.2.2.X.k.# J *.9 ",
"% 2.6.6.2.6.6.6.l.l.l.6.y.6.y.6.l.l.l.6.6.2.6.6.6.2.@.% % ; 9 % ",
"#.q.2.6.2.4.6.6.6.6.6.6.6.y.6.6.6.6.6.6.6.2.6.6.6.2.~ @.& ; h * ",
"z.x.% 2.2.4.4.6.6.6.6.6.6.6.6.6.6.6.6.6.6.2.6.6.6.2.~ 7.2 $ s } ",
"c.v.I o.2.2.4.4.6.6.6.6.6.6.6.6.6.6.6.6.6.4.2.2.2.m ; ; # # d I ",
"b.n.5 % >.2.4.4.4.6.6.6.6.6.6.6.6.6.6.6.4.4.4.4.2.m.h ; # r 0 5 ",
"E  .M.q.g J 2.4.4.4.4.4.4.4.4.4.4.4.4.4.4.4.4.2., * $.@.; X.y s ",
"E | H $ m m # 2.2.4.4.4.4.4.4.4.4.4.4.4.4.2.2.N.d # l = m I ( q ",
"B.V.9 % ,.C.Z.A.I 2.2.2.2.2.2.2.2.2.2.2.2.; i d q.H $ S.m.m d $ ",
"D.F.G 7.y G.H.J.h 2.6.6.6.2.:.2.6.6.6.2.s [ d a P 9.$ N.| j W K.",
"L.P.L _ X.E 2 <.& % 2.2.2.% % m 2.2.2.; I.o % ^ ;.Y % :.E L U.Y."
};
