/* XPM */
static char *tasse2[] = {
/* columns rows colors chars-per-pixel */
"32 32 171 2 ",
"   c #761D2B",
".  c #7A222F",
"X  c #7B2430",
"o  c #822E37",
"O  c #88373E",
"+  c #9D4C27",
"@  c #A04F29",
"#  c #A5552F",
"$  c #A9572F",
"%  c #AD5B2D",
"&  c #B15F2E",
"*  c #A65733",
"=  c #A75933",
"-  c #A95C37",
";  c #AB5F3A",
":  c #B2602F",
">  c #AE623B",
",  c #B56432",
"<  c #B96A36",
"1  c #BB6E39",
"2  c #B86733",
"3  c #BE713C",
"4  c #C2753E",
"5  c #8C3C42",
"6  c #93484B",
"7  c #9E5857",
"8  c #9C5859",
"9  c #9A5455",
"0  c #A45F5C",
"q  c #A55355",
"w  c #AE6642",
"e  c #B56B48",
"r  c #B4724F",
"t  c #B16B5D",
"y  c #BB7E5A",
"u  c #A05E63",
"i  c #A56464",
"p  c #A86664",
"a  c #AB6C65",
"s  c #A6696D",
"d  c #A96B6C",
"f  c #AF7066",
"g  c #AE706A",
"h  c #B47166",
"j  c #B3766B",
"k  c #B57B6E",
"l  c #B9766A",
"z  c #A96E72",
"x  c #AA7378",
"c  c #B57D70",
"v  c #B87F73",
"b  c #C47841",
"n  c #CB7E44",
"m  c #C47F59",
"M  c #CD7B77",
"N  c #B78175",
"B  c #BB8373",
"V  c #B6817E",
"C  c #BE8A7B",
"Z  c #CC8045",
"A  c #CF8348",
"S  c #D5894B",
"D  c #D98D4F",
"F  c #C28A67",
"G  c #C8916D",
"H  c #C18470",
"J  c #C1897B",
"K  c #C5937A",
"L  c #C69A7F",
"P  c #C9987E",
"I  c #D49579",
"U  c #D59D7E",
"Y  c #DB9D7B",
"T  c #DCA07A",
"R  c #B07E86",
"E  c #B98685",
"W  c #BB8B85",
"Q  c #B6878E",
"!  c #BB8B88",
"~  c #B58082",
"^  c #BE948E",
"/  c #B68990",
"(  c #B98E95",
")  c #BD9295",
"_  c #BC9399",
"`  c #BF99A3",
"'  c #C18E80",
"]  c #CA9D8B",
"[  c #C39487",
"{  c #D19C83",
"}  c #C39C9E",
"|  c #D6A380",
" . c #D9A181",
".. c #DAA98C",
"X. c #DDB48E",
"o. c #CBA697",
"O. c #C7A299",
"+. c #D6AC94",
"@. c #D4B098",
"#. c #DAB59B",
"$. c #DBB594",
"%. c #E4A580",
"&. c #E7AA84",
"*. c #E2AB8A",
"=. c #E0B38F",
"-. c #E8B18B",
";. c #FFA49C",
":. c #FFAD9F",
">. c #F3A598",
",. c #EFBF96",
"<. c #E1BE9F",
"1. c #E1B792",
"2. c #F1BC94",
"3. c #C29DA5",
"4. c #C5A3AA",
"5. c #C8A5A8",
"6. c #CAABB2",
"7. c #CFB6BC",
"8. c #D0B4B7",
"9. c #D5BCBF",
"0. c #FFAFA1",
"q. c #FEB8A5",
"w. c #FFB2A3",
"e. c #EDC097",
"r. c #E4C19B",
"t. c #ECC39B",
"y. c #F0C59C",
"u. c #F4CC9F",
"i. c #F9CD9F",
"p. c #E6C5A5",
"a. c #EACBA9",
"s. c #FEC7AC",
"d. c #FEC9AE",
"f. c #F8CEA3",
"g. c #ECD0AA",
"h. c #F6D2A3",
"j. c #FAD7AB",
"k. c #FDDAAD",
"l. c #F1D1AA",
"z. c #FECEB1",
"x. c #EED7B5",
"c. c #F1D7B2",
"v. c #F6DCB5",
"b. c #FDDCB4",
"n. c #FED4B3",
"m. c #FFE4B3",
"M. c #FFEDB6",
"N. c #FEE6BD",
"B. c #FFE9BE",
"V. c #F7E3BB",
"C. c #D6BEC2",
"Z. c #D7C1C6",
"A. c #D8C2C6",
"S. c #DAC4C9",
"D. c #DCC9CE",
"F. c #E1D1D5",
"G. c #E7D9DB",
"H. c #FFECC1",
"J. c #FFF2C6",
"K. c #FFF5C9",
"L. c #FFFACB",
"P. c #EADEE1",
"I. c #ECE3E4",
"U. c #EEE7E9",
"Y. c #F1ECEE",
"T. c #F4F0EF",
"R. c #F4EEF1",
"E. c #F7F4F3",
"W. c #F8F6F5",
"Q. c #F9F8F7",
"!. c #FEFEFD",
/* pixels */
"E.E.E.E.W.E.E.E.E.E.E.E.E.E.E.E.E.E.E.E.E.E.E.E.E.E.E.E.W.E.E.E.",
"W.E.E.E.E.E.E.W.E.E.E.E.E.E.E.E.E.E.E.W.E.E.E.E.E.E.E.E.E.E.E.W.",
"E.E.E.W.E.E.E.E.E.E.E.E.E.E.T.E.E.E.E.E.E.E.E.E.E.E.E.E.E.W.E.E.",
"E.E.E.E.E.E.E.E.E.!.!.!.!.!.!.!.!.!.W.E.E.E.E.E.E.E.E.W.E.E.E.E.",
"E.E.E.E.E.E.W.!.W.S.S.S.S.Z.Z.Z.Z.C.G.!.!.E.E.E.E.E.W.E.E.E.W.E.",
"E.E.E.E.E.!.D._ } k j k k c c k k k ^ 3.5.!.!.E.W.E.E.E.E.E.E.E.",
"E.E.E.!.I./ } ^ o.m.m.m.m.m.m.m.m.M.p.^ O.Q C.!.E.E.E.E.E.E.E.W.",
"E.E.!.I.[ @.x.J.N.2.2.2.2.2.2.2.e.2.j.J.H.#.[ C.!.E.E.E.W.E.E.E.",
"E.E.U.V a.L.,.T T - = - ; > > > - * m %.&.m.H.' C.W.E.E.E.E.E.E.",
"R.!.( U J.,.e + = 4 4 Z S n n n 3 1 : # = T N.j.p U.E.E.E.E.Q.E.",
"E.!.(  .b.w : b A D D D n 1 1 1 4 3 3 4 3 = | m.d Y.!.Q.Q.E.E.E.",
"E.!._  .H.F % < 4 D D D S A 1 n Z 3 1 < < > r.k.0 x x 9.E.Q.E.E.",
"Y.!._ U N.H.G ; w , , , 2 2 & , , & > > w a.H.f.p X.h.C s G.!.T.",
"E.!._  .H.B.H.H.j.F y y y y y y y r X.H.N.H.H.k.a h.k.k.g.W G.W.",
"E.!._  .J.N.B.B.N.J.J.J.J.J.J.J.J.J.H.H.N.N.B.k.0 h l *.M.$.~ !.",
"T.!._  .H.B.N.N.H.B.V.N.N.N.N.N.V.N.H.N.N.N.H.k.i 4.7.! -.k.] S.",
"E.!._  .H.N.H.H.a.c.J.N.N.N.B.N.H.V.p.H.H.N.H.j.d Y.!.( I M.L 3.",
"E.!._  .J.N.H.<.k 9 p.H.N.H.N.N.V.] 8 c N.B.N.k.a I.!.( { m.P 4.",
"T.!._ T H.N.J.a v o f L.H.N.N.K.a.8 j X a.H.N.k.d I.!.( I M.{ ` ",
"E.!._ U J.N.J.a   . J #.+.K.N.' p.5 . O a.H.H.k.p P.D.J i.r.! I.",
"E.!._ { J.z.0.>.q p v.v.N #.C +.H.#.6 M 0.q.B.k.0 i k u.M.K 5.!.",
"Y.!./ T K.b.0.;.0.N.H.H.V.c #.J.B.H.d.;.;.s.H.b.a h.M.r.K 5.W.T.",
"E.!.S.J k.H.b.d.z.N.B.B.H.J.H.N.N.B.b.s.n.H.B...6 B B W ` E.W.E.",
"E.E.!.z ,.H.B.H.H.N.B.N.N.N.B.N.B.N.H.H.H.N.m.h 3.Z.6.I.!.E.E.E.",
"E.E.E.F.f m.H.N.N.N.H.N.H.N.N.N.B.B.B.N.N.B.U _ !.!.!.W.E.E.E.E.",
"E.E.E.E.~ X.B.N.H.N.N.N.N.N.N.H.N.N.N.H.B.u.B D.!.E.E.E.E.E.E.E.",
"E.E.E.W.Y.E t t.m.H.H.H.H.H.H.H.H.H.N.k.H g D.!.T.E.E.E.E.E.E.E.",
"E.E.E.E.Q.I.C.E j y.y.y.y.y.y.y.t.f.| p 8.F.W.E.E.E.E.E.E.E.E.E.",
"W.E.E.E.E.Q.!.Y.F.z s s s s z s z i 5.U.Q.!.E.E.E.W.E.E.E.E.W.E.",
"E.E.E.W.E.E.E.W.W.E.E.E.W.E.E.E.E.E.Q.Q.E.E.E.E.E.E.E.W.E.E.E.E.",
"E.E.E.E.E.W.E.E.E.E.W.E.W.E.E.W.E.E.E.E.E.E.E.E.E.E.E.E.E.E.W.E.",
"E.E.E.E.E.E.E.E.E.E.E.E.E.E.E.E.E.E.E.E.Q.E.E.E.W.E.E.E.E.W.E.E."
};
