/* XPM */
static char *wall[] = {
/* columns rows colors chars-per-pixel */
"32 32 72 1 ",
"  c #8E3E1A",
". c #903F1A",
"X c #8F401B",
"o c #92411A",
"O c #99461A",
"+ c #9D491B",
"@ c #A1470E",
"# c #A3490F",
"$ c #A64B10",
"% c #A94E11",
"& c #A34D1C",
"* c #A94E19",
"= c #AD5214",
"- c #AD531C",
"; c #B25616",
": c #B55917",
"> c #B1551B",
", c #B55A1B",
"< c #BA5C1A",
"1 c #BE611C",
"2 c #9F4B20",
"3 c #A44F21",
"4 c #A55123",
"5 c #B25E2D",
"6 c #B2602F",
"7 c #BC652E",
"8 c #BA6531",
"9 c #C25E1B",
"0 c #C3651E",
"q c #CC631A",
"w c #C6681F",
"e c #C96A1F",
"r c #D46719",
"t c #D66919",
"y c #D96C1A",
"u c #DC701E",
"i c #C46620",
"p c #C76920",
"a c #C96B20",
"s c #C1682D",
"d c #D26D22",
"f c #CE7123",
"g c #D27524",
"h c #DD7424",
"j c #D47827",
"k c #DF7827",
"l c #D1712B",
"z c #DC762A",
"x c #D67C28",
"c c #DA7C2B",
"v c #C66F34",
"b c #CA773F",
"n c #DC7A30",
"m c #E07827",
"M c #E37F32",
"N c #DC832C",
"B c #DF882F",
"V c #E0862D",
"C c #E0892F",
"Z c #E18036",
"A c #E38D31",
"S c #E8893E",
"D c #E69133",
"F c #E99636",
"G c #ED9C39",
"H c #F3A63E",
"J c #DA8749",
"K c #E68C46",
"L c #E88B42",
"P c #EA9043",
"I c #EC9651",
"U c #F2A05D",
/* pixels */
"@####@@##%:<<eaxNae<:<::=####$#$",
"=$#@##==;:epeeeCHjeeeeaa:#######",
"0:##$%0wwaVgppexCfaaeeNCe::#####",
"p:###=wpwxHxepiiwpwpeeCGfa1#@##<",
"1=#=:1wppgxp5&+++++&1afjaew,=%$<",
"###<pfNgpew0$...XoXo-i0qaeeae=#;",
"###1pxHNe1&+..    XooOO5eeaae;@#",
"#:<wagNgq5.  25888884oX-wwaDN:%#",
"#0eweeew-+  6JKLLLLLs..O&>aGAw1%",
"#1aeeeewO oObUZkmmmmdp> XO1gfa1$",
"$1aNNep,O 6JMMyyyyyyuu0&XO<waww%",
"$0aHFe5Oo+vIMyr-**=9yyyr-Xo-wa1%",
"$1axxe, 2lkhdy>..  O9yyy<XX+1ai1",
"#1aaee,X3nkyr>. ....O<yy0oX+iapw",
"%1epae,X3zzyr+      .,yy9oX+1aap",
"#0weaa,X3nzyr+       ,yy<oX+iaia",
"$<aaee5o3nmyy%..    O5ry9..&9pp9",
"#0aape:.&dytt9$.  ..9rry9...ipi>",
"#<aDDa,o.&<rtt<O.OO>rtr9*..&ipi%",
"#<aDGg1&. >rttr9999rrr9...*9pp0%",
"#:eggee0* &9qrrtyyrrr9*...,ppi0%",
"#;<weeew*..OO<rrttrr9O...O5p9;%$",
"###<egVa53..X*1199:9*...&;ia<##$",
"###1eVHjq9O.XXXo........<epp:$#$",
"###<wjVfww&oOXXXXXXXXo+&ii0=%@%<",
"###%=1feee1112XXXXXXX+1wpp:@$@$0",
";=###:weweew1,2&&++&&,ww<:=@#=;0",
"e0%#%=:<wfDgaaw1wwwwwww1%@$$=1pp",
"ww%####%1gGNppapeggaa0==##=10paw",
"1w01=###11ffaapaeFGfe1$###:pppjD",
"ewee:%%#$$1pppaaaBBae0::::1wwwNH",
"aweew01%##:ppaaaaawwwwwwwawwwwfN"
};
